<svg id="Layer_1" data-name="Layer 1" xmlns="http://www.w3.org/2000/svg" viewBox="0 0 239.28 71.99"><defs><style>.cls-1{fill:#f1971f;}</style></defs><path d="M658.78,722.31v23.14a1.42,1.42,0,0,1-1.41,1.42h-7.31a1.43,1.43,0,0,1-1.42-1.42V707.8a1.42,1.42,0,0,1,1.42-1.41h6.76a1.42,1.42,0,0,1,1.42,1.41v5.3s2.41-7.56,9.59-7.56c0,0,7.09-.86,10,7,0,0,2.41-7,9.74-7,0,0,10.9-.65,10.9,10.63l.09,6.21v23.15a1.43,1.43,0,0,1-1.42,1.42h-7.31a1.42,1.42,0,0,1-1.41-1.42l-.07-25.25c.21-5.72-4.42-5.3-4.42-5.3-5.82.1-5.26,7.4-5.26,7.4v23.15a1.42,1.42,0,0,1-1.41,1.42h-7.31a1.42,1.42,0,0,1-1.41-1.42V720.85s.42-5.93-4.78-5.93C663.75,714.92,658.6,714.25,658.78,722.31Zm188.36-.07v23.14a1.43,1.43,0,0,1-1.42,1.42l-7.6.14a1.41,1.41,0,0,1-1.41-1.41V720.85s.43-5.93-4.77-5.93c0,0-5-.24-5,9.05v21.48a1.42,1.42,0,0,1-1.41,1.42h-7.31a1.42,1.42,0,0,1-1.41-1.42V707.8a1.41,1.41,0,0,1,1.41-1.41H825a1.42,1.42,0,0,1,1.42,1.41h0v5.3s2.41-7.56,9.59-7.56a9.45,9.45,0,0,1,10.27,6.87s.85,1.66.85,9.83Zm-52.76-16.86c-9.35,0-16.92,7.88-16.92,21.14,0,11.67,5.85,21.13,16.92,21.13,10.45,0,16.92-9.46,16.92-21.13C811.3,713.49,803.72,705.38,794.38,705.38Zm5.9,21.6a36.76,36.76,0,0,1-.63,7.65c-.89,5.27-4.72,5.28-5.28,5.25s-4.47,0-5.27-5.25a37.33,37.33,0,0,1-.62-7.65v-.83a37.15,37.15,0,0,1,.62-7.64c.8-5.22,4.66-5.28,5.27-5.25s4.39,0,5.28,5.25a36.58,36.58,0,0,1,.63,7.64Zm-27.06-13.93v-5.4a1.43,1.43,0,0,0-1.42-1.42H747.65a1.43,1.43,0,0,0-1.42,1.42h0V713a1.42,1.42,0,0,0,1.42,1.41h12.6l-14.92,21.64a3.63,3.63,0,0,0-.56,1.84v6.58s-.1,2.26,2.46.95c0,0,4.54-2.74,12.16-2.74,0,0,7.53-.1,12.55,3,0,0,2.08.94,2.08-1.14V738.8s.19-1.51-1.8-2.46a26.53,26.53,0,0,0-13.35-2.65ZM643,740.13l-2.28-3.48a5.87,5.87,0,0,1-.68-2.75V717.83C640.35,704,625,705.15,625,705.15c-13.68,0-15.7,10.65-15.7,10.65-.57,2.14,1.08,2.19,1.08,2.19l6.69.68a1.34,1.34,0,0,0,1.55-1.1,5.84,5.84,0,0,1,5.81-4.64c5.35,0,5.3,4.59,5.3,4.59v3.85c-10.7.36-15.65,3.33-15.65,3.33-6.6,3.74-6.19,11.17-6.19,11.17,0,12.11,11.54,11.59,11.54,11.59a16.1,16.1,0,0,0,11.75-5.4,21.93,21.93,0,0,0,3.69,4.47,1.72,1.72,0,0,0,2.45.21l5.4-4.63A1.33,1.33,0,0,0,643,740.13ZM623,740c-3.48,0-4.77-3.45-4.19-6.84s3.57-6,10.88-6v2.06c.26,9-3.8,10.75-6.69,10.75Zm117.1.15-2.29-3.48a5.87,5.87,0,0,1-.68-2.75V717.83c.32-13.87-15.07-12.68-15.07-12.68-13.68,0-15.7,10.65-15.7,10.65-.57,2.14,1.09,2.19,1.09,2.19l6.68.68a1.35,1.35,0,0,0,1.56-1.1,5.84,5.84,0,0,1,5.8-4.64c5.36,0,5.3,4.59,5.3,4.59v3.85c-10.69.36-15.65,3.33-15.65,3.33-6.6,3.74-6.18,11.17-6.18,11.17,0,12.11,11.54,11.59,11.54,11.59a16.09,16.09,0,0,0,11.74-5.4,21.83,21.83,0,0,0,3.7,4.47,1.71,1.71,0,0,0,2.44.21l5.41-4.63a1.34,1.34,0,0,0,.31-2Zm-20-.15c-3.47,0-4.76-3.45-4.19-6.84s3.58-6,10.88-6v2.06c.26,9-3.8,10.75-6.69,10.75Z" transform="translate(-607.86 -705.13)"/><path class="cls-1" d="M758.51,770.54s-.61,1.06.14,1.3a1.91,1.91,0,0,0,1.9-.65,26.93,26.93,0,0,0,7.9-19s.06-1.54-.55-2c0,0-2.42-2.13-11.11-1.48,0,0-7.58.51-11.72,4.18a1.15,1.15,0,0,0-.37.74s-.09.91,2.19.51c0,0,7.57-1.07,12.08-.51,0,0,2.33.28,3,1.07,0,0,1.07.89.51,3.81,0,0-1.54,7.44-4,12Z" transform="translate(-607.86 -705.13)"/><path class="cls-1" d="M757,758.76a1.84,1.84,0,0,1-.7,2.73S736.78,777.1,704,777.1c0,0-33.71,1.66-61.86-23.92,0,0-1-.86-.37-1.67,0,0,.55-.74,2,.07,0,0,26.48,16.5,61.26,16.5a126.55,126.55,0,0,0,49-9.67s2-1,3,.35Z" transform="translate(-607.86 -705.13)"/></svg>