<svg id="Layer_1" data-name="Layer 1" xmlns="http://www.w3.org/2000/svg" viewBox="0 0 270.89 58.14"><defs><style>.cls-1{fill:#233f94;}</style></defs><path class="cls-1" d="M803.85,414.17l16.25-15.89h-16v-7.47h27.38v7.6l-16.25,15.82h16.56v7.49H803.85Z" transform="translate(-646.95 -378.48)"/><rect class="cls-1" x="145.22" y="12.42" width="8.46" height="30.91"/><path class="cls-1" d="M689.77,406.25a13.76,13.76,0,1,1,0,.11A.2.2,0,0,0,689.77,406.25Zm23.8,0a7.94,7.94,0,0,0-7.79-8,8,8,0,0,0,0,16.07,8,8,0,0,0,7.79-8Z" transform="translate(-646.95 -378.48)"/><path class="cls-1" d="M760,390.81h8.4v3.47a10.61,10.61,0,0,1,8.52-4.08c7.3,0,11.68,4.69,11.68,12.67v18.85H780V404c0-4.15-1.92-6.56-5.69-6.56-3.21,0-5.88,2.22-5.88,7.41v16.88H760Z" transform="translate(-646.95 -378.48)"/><path class="cls-1" d="M832.26,406.25c0-10.93,8-16.07,15-16.07a12.42,12.42,0,0,1,9.21,3.63v-3H865v30.91h-8.46v-3.47a12,12,0,0,1-9.33,4.08C840.6,422.31,832.26,417.13,832.26,406.25Zm24.46-.06a8,8,0,0,0-7.91-8.27,8.31,8.31,0,1,0,7.91,8.27Z" transform="translate(-646.95 -378.48)"/><path class="cls-1" d="M868.38,390.81h8.4v3.47a10.6,10.6,0,0,1,8.52-4.08c7.3,0,11.68,4.69,11.68,12.67v18.85h-8.59V404c0-4.15-1.9-6.56-5.69-6.56-3.22,0-5.88,2.22-5.88,7.41v16.88h-8.47Z" transform="translate(-646.95 -378.48)"/><path class="cls-1" d="M803.85,421.7v-7.53l16.25-15.89h-16v-7.47h27.38v7.6l-16.25,15.82" transform="translate(-646.95 -378.48)"/><path class="cls-1" d="M680.73,406l-.1.25A12.77,12.77,0,0,1,668.82,414a13.51,13.51,0,0,1,.19-27c5,0,8.78,2.35,11.28,7l.13.25,7.53-4.82-.13-.21A22,22,0,0,0,647,400.54c0,12.78,9.26,22,22,22a21.76,21.76,0,0,0,19.47-12.23l.12-.23Z" transform="translate(-646.95 -378.48)"/><path class="cls-1" d="M723.92,406.25c0-10.93,8-16.07,15-16.07a12.09,12.09,0,0,1,9.2,3.95v-3.32h8.46v30c0,8.72-5.5,15.77-16,15.77-7.85,0-13.6-4.09-16.08-8.91L732,423.5a9.06,9.06,0,0,0,8.59,5.24,7.36,7.36,0,0,0,7.47-7.59v-2.9a12,12,0,0,1-9.33,4.08C732.25,422.31,723.92,417.13,723.92,406.25Zm24.47-.06a8,8,0,0,0-7.91-8.27,8.31,8.31,0,1,0,7.91,8.27Z" transform="translate(-646.95 -378.48)"/><path class="cls-1" d="M917.84,398.41v-7.6H912v-10.2h-8.46v10.2h-5.27v7.6h5.25v9.88c0,10.07,3.21,13.41,13,13.41h1.23v-7.91c-5.19,0-5.82-.74-5.82-5.57v-9.81Z" transform="translate(-646.95 -378.48)"/></svg>