<svg id="Layer_1" data-name="Layer 1" xmlns="http://www.w3.org/2000/svg" viewBox="0 0 282.48 118.52"><defs><style>.cls-1{fill:#172a16;}.cls-2{fill:#3da348;}.cls-3{fill:#307b3c;}.cls-4{fill:#235228;}.cls-5{fill:#5fba46;}</style></defs><circle class="cls-1" cx="27.2" cy="9" r="9"/><circle class="cls-2" cx="113.77" cy="9.39" r="9"/><circle class="cls-3" cx="85.07" cy="9.39" r="9"/><circle class="cls-4" cx="56.1" cy="9.39" r="9"/><circle class="cls-5" cx="142.59" cy="9.39" r="9"/><path class="cls-5" d="M538.88,643.41h66.77a7.46,7.46,0,0,1,1,.37,7,7,0,0,1,3.19,2.59,6.23,6.23,0,0,1,.83,4.75c-.76,2.9-3.67,4.13-4.52,4.48a7.44,7.44,0,0,1-.83.3l-67.79.17a23.67,23.67,0,0,0-3.11.62,25.78,25.78,0,0,0-13.11,8.1,25.4,25.4,0,0,0-5.73,12.7q-.12,20.73-.25,41.44a6.82,6.82,0,0,1-1.27,3,7.06,7.06,0,0,1-3.14,2.32,6.94,6.94,0,0,1-5.13-.08,7.28,7.28,0,0,1-3.94-5.08q.06-20.1.13-40.19a42.76,42.76,0,0,1,1.17-6.6c.12-.46,2.47-9.23,7.72-15.72C520.27,645,536.54,643.58,538.88,643.41Z" transform="translate(-501.88 -606.25)"/><path class="cls-5" d="M527.75,677.33l64.08-.07a7.19,7.19,0,0,1,2.76,1.43,7.09,7.09,0,0,1,2.49,5.58,6.17,6.17,0,0,1-1.83,4.09,6,6,0,0,1-2.82,1.49l-65.28.07a7.09,7.09,0,0,1-2.72-1.46,6.41,6.41,0,0,1-2.26-4.16,6.64,6.64,0,0,1,2.31-5.38A6.93,6.93,0,0,1,527.75,677.33Z" transform="translate(-501.88 -606.25)"/><path class="cls-5" d="M637.94,648.36q-.06,35.11-.13,70.23a7.3,7.3,0,0,0,2.26,4.32,6.82,6.82,0,0,0,9.7-.34,7.39,7.39,0,0,0,2-4q0-35.29,0-70.6a7.28,7.28,0,0,0-2.14-3.39,7.47,7.47,0,0,0-4.73-1.85,7,7,0,0,0-5,1.85A6.79,6.79,0,0,0,637.94,648.36Z" transform="translate(-501.88 -606.25)"/><path class="cls-5" d="M775.5,643.38a6.44,6.44,0,0,1,2.53,1,6.55,6.55,0,0,1,2.92,5.79,6.42,6.42,0,0,1-1.89,4,6.75,6.75,0,0,1-3.49,1.83l-75.24,0a10.85,10.85,0,0,0-5.22,3.32,11.12,11.12,0,0,0-2.62,7.27,10.88,10.88,0,0,0,3,7.84,10.62,10.62,0,0,0,6,2.93l63.38,0a25.54,25.54,0,0,1,13.46,7.94A24.77,24.77,0,0,1,784,696.86a22.67,22.67,0,0,1-8.28,21.89,25.08,25.08,0,0,1-12,5.45l-76.24.07a6.62,6.62,0,0,1,.2-13.09l74.24,0a10.43,10.43,0,0,0,5.52-2.66,10.93,10.93,0,0,0,2.85-10.49,10.34,10.34,0,0,0-4.38-6.31,9.91,9.91,0,0,0-4.65-1.47L699,690a22.81,22.81,0,0,1-11.39-4.72,23,23,0,0,1-7.74-11.69,22.59,22.59,0,0,1,11.36-27.34,25.18,25.18,0,0,1,8.9-2.79Z" transform="translate(-501.88 -606.25)"/></svg>