<svg id="Layer_1" data-name="Layer 1" xmlns="http://www.w3.org/2000/svg" viewBox="0 0 43.56 43.56"><defs><style>.cls-1{fill:#7398c5;}.cls-2{fill:#fff;}</style></defs><g id="logo-40-px"><g id="_64-px" data-name="64-px"><g id="GS_40" data-name="GS 40"><rect id="Rectangle" class="cls-1" width="43.56" height="43.56"/><path id="Shape" class="cls-2" d="M793.19,435.83h2.39v3.82a16.74,16.74,0,0,1-2.23.22c-2.36,0-3.35-1.46-3.35-3.9,0-2.61,1.26-4.07,3.73-4.07a9,9,0,0,1,1.76.19v2.36h-.55l-.33-.9c-.3-.83-.66-1.16-1.2-1.16-1,0-1.54,1.3-1.54,3.58s.3,3.4,1.54,3.4a2.71,2.71,0,0,0,.57-.05v-2.67l-.82-.52v-.3Zm2.25,10.35c0,1.54-1.05,2.42-2.91,2.42a10.48,10.48,0,0,1-1.95-.22v-2.91h.55l.22.66c.49,1.54.87,2,1.53,2a1.16,1.16,0,0,0,1.16-1.26,1.57,1.57,0,0,0-1-1.4l-1.13-.61a2.27,2.27,0,0,1-1.35-2.06c0-1.34,1.07-2.14,2.89-2.14a11.24,11.24,0,0,1,1.65.14v2.42h-.55l-.33-.88c-.31-.85-.61-1.18-1.24-1.18a.91.91,0,0,0-1,.9,1.51,1.51,0,0,0,.9,1.24l1.16.63A2.43,2.43,0,0,1,795.44,446.18Zm5.08,1.79.22.33v.16H799l-.06-.71a1.38,1.38,0,0,1-1.37.85,1.37,1.37,0,0,1-1.46-1.48c0-1,.53-1.54,2.09-2.17l.72-.3v-.8c0-.61-.2-.88-.64-.88s-.63.25-.87.85l-.36.88h-.52v-1.81a6.91,6.91,0,0,1,1.92-.33c1.32,0,2,.6,2,1.73V448Zm.74-11.15c0,1.95-1,3.05-2.36,3.05s-2.36-1.08-2.36-3.05,1-3.05,2.36-3.05S801.26,434.87,801.26,436.82ZM799,447v-1.87l-.24.11a1.6,1.6,0,0,0-1,1.65c0,.72.19,1.05.57,1.05S799,447.5,799,447Zm.64-10.13c0-2.09-.2-2.61-.72-2.61s-.71.52-.71,2.61.19,2.61.71,2.61S799.59,438.93,799.59,436.82ZM805.13,447l.36.2a1.75,1.75,0,0,1-1.81,1.4c-1.46,0-2.23-1.13-2.23-3,0-2,.91-3.07,2.53-3.07a4.2,4.2,0,0,1,1.48.24v1.93h-.55l-.22-.74c-.24-.83-.46-1-.76-1-.47,0-.83.58-.83,2.69,0,1.73.25,2.36,1,2.36C804.5,448,804.8,447.75,805.13,447Zm-1.07-7.3h-2v-.17l.22-.33v-6.31l-.22-.33v-.17l1.79-.14v7l.22.33v.17Zm2.83.14c-1.32,0-2-1.08-2-3.11s.8-3,2.06-3a1,1,0,0,1,1.07.71v-1.56l-.22-.33v-.17l1.81-.14v7l.22.33v.17h-1.59l-.14-.83A1.1,1.1,0,0,1,806.89,439.87Zm4,8.1.22.33v.16h-2v-.16l.22-.33v-4.12c0-.41-.19-.69-.52-.69s-.74.41-.74,1V448l.22.33v.16h-2v-.16l.22-.33v-6.32l-.22-.33v-.16L808,441v2.25a1.46,1.46,0,0,1,1.35-.74c1,0,1.51.58,1.51,1.73V448Zm-4.34-11.18c0,2,.19,2.61.74,2.61s.74-.85.74-2.64-.14-2.53-.74-2.53S806.51,434.87,806.51,436.79ZM818,439.23l.22.33v.17h-2v-.17l.22-.33v-4.14c0-.39-.16-.69-.52-.69s-.69.44-.69,1v3.81l.22.33v.17h-2v-.17l.22-.33v-4.14c0-.39-.17-.69-.52-.69s-.72.44-.72,1v3.81l.22.33v.17h-2v-.17l.22-.33v-4.67l-.22-.27v-.17l1.59-.19h.14l.06.69a1.46,1.46,0,0,1,1.4-.82,1.29,1.29,0,0,1,1.32.9,1.52,1.52,0,0,1,1.48-.9c.91,0,1.4.54,1.4,1.7v3.73Zm-2.22,7.5c0,1.07-.63,1.9-2.23,1.9a12.18,12.18,0,0,1-1.75-.19v-2.09h.49l.17.44c.41,1.1.66,1.4,1.26,1.4a.77.77,0,0,0,.88-.85c0-.47-.25-.77-.8-1.07l-1-.55a1.64,1.64,0,0,1-1-1.51c0-1.08.8-1.68,2.17-1.68a8.41,8.41,0,0,1,1.46.16v1.63H815l-.24-.58c-.25-.58-.47-.8-1-.8s-.76.25-.76.63.22.58.76.88l1,.58A1.89,1.89,0,0,1,815.82,446.73Zm7.5-7.5.22.33v.17h-1.73l-.06-.72a1.48,1.48,0,0,1-2.83-.63c0-1,.53-1.54,2.09-2.17l.72-.3v-.8c0-.6-.2-.88-.64-.88s-.63.25-.88.86l-.35.88h-.52v-1.85a7.2,7.2,0,0,1,1.92-.32c1.32,0,2,.6,2,1.73v3.7Zm-1.59-1v-1.84l-.25.11a1.59,1.59,0,0,0-1,1.65c0,.71.19,1,.57,1S821.73,438.74,821.73,438.19Zm7.49,1.37v.17h-2v-.17l.22-.33v-4.14c0-.42-.19-.69-.52-.69s-.74.41-.74,1v3.82l.22.33v.16h-2v-.16l.22-.33v-4.67l-.22-.28v-.16l1.6-.19h.14l0,.71a1.37,1.37,0,0,1,1.4-.82c1,0,1.51.57,1.51,1.73v3.7Z" transform="translate(-787.88 -429.7)"/></g></g></g></svg>