<svg id="Layer_1" data-name="Layer 1" xmlns="http://www.w3.org/2000/svg" viewBox="0 0 30 30"><defs><style>.cls-1{fill:#293b8f;}.cls-2{fill:#fff;}</style></defs><path id="Path_1" data-name="Path 1" class="cls-1" d="M1080.88,530.42a15,15,0,1,0,15,15A15,15,0,0,0,1080.88,530.42Z" transform="translate(-1065.88 -530.42)"/><path id="Path_2" data-name="Path 2" class="cls-2" d="M1076.48,539.48h-.5c-1,0-1.46.54-1.46,1.61v5.15c0,1.32-.45,1.79-1.51,1.79a2.54,2.54,0,0,1-2-1,1.72,1.72,0,0,0-1.14,1.73c0,1.38,1.3,2.23,3.69,2.23,2.92,0,4.46-1.46,4.46-4.69v-5.2C1078,540,1077.46,539.48,1076.48,539.48Zm4.52,2.6h-.35c-.84,0-1.49.39-1.49,1.61v5.53c0,1.22.62,1.61,1.52,1.61h.35c.84,0,1.45-.42,1.45-1.61v-5.53c0-1.25-.58-1.61-1.48-1.61Zm-.2-4a1.54,1.54,0,0,0-1.73,1.33,1.79,1.79,0,0,0,0,.23,1.57,1.57,0,0,0,1.79,1.56,1.55,1.55,0,0,0,1.74-1.33,1.85,1.85,0,0,0,0-.23c0-1-.67-1.55-1.79-1.55Zm7.3,3.92c-2.83,0-4.71,1.79-4.71,4.47s1.8,4.5,4.66,4.5,4.7-1.76,4.7-4.48a4.33,4.33,0,0,0-4.16-4.5h-.49Zm0,6.45a2,2,0,1,1,1.87-2.06v.1a1.86,1.86,0,0,1-1.77,1.95h-.1Z" transform="translate(-1065.88 -530.42)"/></svg>