<svg id="Layer_1" data-name="Layer 1" xmlns="http://www.w3.org/2000/svg" viewBox="0 0 224.72 59.52"><defs><style>.cls-1{fill:#006799;}.cls-2{fill:#fff;}</style></defs><path class="cls-1" d="M957.51,324.05a4.32,4.32,0,0,1,4.38-4.27h50.4a4.32,4.32,0,0,1,4.37,4.27v51a4.32,4.32,0,0,1-4.37,4.27h-50.4a4.32,4.32,0,0,1-4.38-4.27v-51Z" transform="translate(-791.94 -319.78)"/><path d="M791.94,369.64h24.69v-8.1H800.88V330.62h-8.94Zm37.19,0V342.77h-8.94v26.87Zm-4.47-30.54c3.11,0,5.05-2.07,5.05-4.65a4.63,4.63,0,0,0-5-4.64c-3.06,0-5.06,2-5.06,4.64a4.63,4.63,0,0,0,4.94,4.65Zm8.61,30.54h8.94v-15a6.07,6.07,0,0,1,.29-2.18,4.9,4.9,0,0,1,4.58-3.26c3.24,0,4.53,2.46,4.53,6.07v14.38h8.93V354.23c0-8.25-4.4-12.1-10.28-12.1a8.9,8.9,0,0,0-8.11,4.53h.06v-3.89h-8.94C833.39,345.29,833.27,369.64,833.27,369.64Zm39.88-39h-8.94v39h8.94v-8.71l2.23-2.81,7,11.52h11L881.61,353l10.28-11.35H881.14s-7.35,10.15-8,11.36Z" transform="translate(-791.94 -319.78)"/><path d="M917.25,358.43a21.35,21.35,0,0,0,.3-3.51c0-6.95-3.53-14-12.82-14-9.93,0-14.51,7.85-14.51,15,0,8.81,5.58,14.31,15.34,14.31a27.85,27.85,0,0,0,10.4-1.77l-1.18-5.9a24.25,24.25,0,0,1-7.93,1.2c-4.17,0-7.82-1.72-8.11-5.37l18.51.06Zm-18.57-6c.24-2.3,1.77-5.68,5.59-5.68,4.05,0,5,3.61,5,5.68Zm40.92-21.77v13.51h-.12c-1.29-1.89-4-3.15-7.58-3.15-6.88,0-12.93,5.5-12.87,14.9,0,8.72,5.46,14.39,12.28,14.39,3.7,0,7.23-1.6,9-4.7h.18l.35,4.07h7.94c-.12-1.89-.24-5.16-.24-8.37V330.62Zm0,26.58a9.8,9.8,0,0,1-.18,1.95,5.25,5.25,0,0,1-5.23,4.18c-3.7,0-6.11-3-6.11-7.68,0-4.41,2.06-8,6.17-8a5.29,5.29,0,0,1,5.23,4.25,7.19,7.19,0,0,1,.12,1.6v3.67Z" transform="translate(-791.94 -319.78)"/><path class="cls-2" d="M975.44,369.61V342.73h-8.93v26.88ZM971,339.06c3.11,0,5-2.06,5-4.64a4.64,4.64,0,0,0-5-4.64c-3.06,0-5.06,2-5.06,4.64a4.62,4.62,0,0,0,4.94,4.64Zm9.41,30.55h8.93v-15a6.06,6.06,0,0,1,.3-2.18,4.88,4.88,0,0,1,4.58-3.26c3.23,0,4.52,2.46,4.52,6.07v14.38h8.94V354.2c0-8.26-4.41-12.1-10.29-12.1a8.91,8.91,0,0,0-8.11,4.53h.06v-3.9h-8.93c.12,2.53,0,26.88,0,26.88Z" transform="translate(-791.94 -319.78)"/></svg>