<svg id="Layer_1" data-name="Layer 1" xmlns="http://www.w3.org/2000/svg" viewBox="0 0 204.62 65.04"><defs><style>.cls-1{fill:#515252;}.cls-2,.cls-3{isolation:isolate;}.cls-3{font-size:19.95px;font-family:ArialMT, Arial;}.cls-3,.cls-4{fill:#4877ba;}</style></defs><path class="cls-1" d="M671.37,695.7V667.64h5.38V695.7Z" transform="translate(-632.24 -655.37)"/><path class="cls-1" d="M680,685.25a11.08,11.08,0,0,1,1.32-5.19,9.06,9.06,0,0,1,3.74-3.82,11.08,11.08,0,0,1,5.41-1.32,10.16,10.16,0,0,1,7.56,3,10.33,10.33,0,0,1,2.95,7.56,10.47,10.47,0,0,1-3,7.64,10,10,0,0,1-7.49,3,11.73,11.73,0,0,1-5.33-1.28,8.58,8.58,0,0,1-3.86-3.7A12.3,12.3,0,0,1,680,685.25Zm5.52.29a6.71,6.71,0,0,0,1.44,4.63,4.69,4.69,0,0,0,6.62.44,3.73,3.73,0,0,0,.45-.44,6.85,6.85,0,0,0,1.42-4.67,6.73,6.73,0,0,0-1.42-4.59,4.67,4.67,0,0,0-6.59-.49,4.45,4.45,0,0,0-.48.49,6.66,6.66,0,0,0-1.45,4.63Z" transform="translate(-632.24 -655.37)"/><path class="cls-1" d="M703.75,697l6.15.75a2.11,2.11,0,0,0,.71,1.47,4,4,0,0,0,2.41.57,6.39,6.39,0,0,0,3.16-.62,2.62,2.62,0,0,0,1.07-1.36,8.24,8.24,0,0,0,.25-2.47v-3a7.28,7.28,0,0,1-6.09,3.3,7.5,7.5,0,0,1-6.49-3.47,11.81,11.81,0,0,1-1.88-6.79q0-5.1,2.47-7.81a7.93,7.93,0,0,1,6.13-2.72,7.45,7.45,0,0,1,6.22,3.31v-2.85h5v18.26a18.41,18.41,0,0,1-.59,5.38,6.58,6.58,0,0,1-1.67,2.79,7.36,7.36,0,0,1-2.86,1.6,15,15,0,0,1-4.52.57q-5.18,0-7.34-1.77a5.55,5.55,0,0,1-2.16-4.49C703.74,697.51,703.74,697.3,703.75,697Zm4.81-11.93a7.37,7.37,0,0,0,1.25,4.74,3.85,3.85,0,0,0,3.09,1.5,4.27,4.27,0,0,0,3.34-1.54,6.73,6.73,0,0,0,1.35-4.56,7,7,0,0,0-1.3-4.67,4.15,4.15,0,0,0-3.29-1.53,4,4,0,0,0-3.19,1.5A7,7,0,0,0,708.56,685.11Z" transform="translate(-632.24 -655.37)"/><path class="cls-1" d="M727.22,672.62v-5h5.38v5Zm0,23.09V675.37h5.38V695.7Z" transform="translate(-632.24 -655.37)"/><path class="cls-1" d="M754.86,681.38l-5.31,1a3.79,3.79,0,0,0-1.21-2.39,3.67,3.67,0,0,0-2.46-.81,4,4,0,0,0-3.21,1.39c-.79.93-1.19,2.47-1.19,4.64q0,3.62,1.21,5.1a4,4,0,0,0,3.27,1.49,3.58,3.58,0,0,0,2.5-.87,5.19,5.19,0,0,0,1.38-3l5.28.9a9.38,9.38,0,0,1-3.16,5.49,9.73,9.73,0,0,1-6.25,1.86,9.31,9.31,0,0,1-7.12-2.82c-1.77-1.88-2.65-4.47-2.65-7.79s.89-6,2.66-7.84a9.47,9.47,0,0,1,7.22-2.81,9.79,9.79,0,0,1,5.91,1.61A8.75,8.75,0,0,1,754.86,681.38Z" transform="translate(-632.24 -655.37)"/><path class="cls-1" d="M765.51,675.37h3v-1.53A10.28,10.28,0,0,1,769,670a4.32,4.32,0,0,1,2-2.07,7.82,7.82,0,0,1,3.71-.8,15,15,0,0,1,4.5.7l-.73,3.74a10.84,10.84,0,0,0-2.47-.3,2.17,2.17,0,0,0-1.7.55,3.2,3.2,0,0,0-.5,2.09v1.44h4v4.25h-4v16.1H768.5V679.6h-3Z" transform="translate(-632.24 -655.37)"/><path class="cls-1" d="M785.09,695.7h-5.38V675.37h5v2.89a8.81,8.81,0,0,1,2.3-2.7,4.36,4.36,0,0,1,2.33-.65,6.83,6.83,0,0,1,3.54,1l-1.67,4.67a4.68,4.68,0,0,0-2.52-.88,2.91,2.91,0,0,0-1.9.64,4.35,4.35,0,0,0-1.24,2.25,31.81,31.81,0,0,0-.45,6.79Z" transform="translate(-632.24 -655.37)"/><path class="cls-1" d="M807.59,695.7v-3a7.86,7.86,0,0,1-2.91,2.55,8.2,8.2,0,0,1-3.82.93,7.48,7.48,0,0,1-3.68-.9,5.23,5.23,0,0,1-2.35-2.54,11.22,11.22,0,0,1-.73-4.5V675.37h5.38v9.34a25.72,25.72,0,0,0,.3,5.26,2.93,2.93,0,0,0,1.08,1.53,3.27,3.27,0,0,0,2,.56,4.26,4.26,0,0,0,2.47-.75,3.79,3.79,0,0,0,1.49-1.88,20.12,20.12,0,0,0,.41-5.48v-8.58h5.38V695.7Z" transform="translate(-632.24 -655.37)"/><path class="cls-1" d="M817.19,672.62v-5h5.38v5Zm0,23.09V675.37h5.38V695.7Z" transform="translate(-632.24 -655.37)"/><path class="cls-1" d="M836.42,675.37v4.29h-3.67v8.19a20,20,0,0,0,.1,2.9,1.15,1.15,0,0,0,.48.68,1.54,1.54,0,0,0,.91.27,7.32,7.32,0,0,0,2.16-.51l.46,4.16a10.46,10.46,0,0,1-4.24.81,6.57,6.57,0,0,1-2.63-.49,3.81,3.81,0,0,1-1.7-1.27,5.06,5.06,0,0,1-.75-2.09,26.79,26.79,0,0,1-.18-3.8v-8.85H824.9v-4.29h2.46v-5.56h5.4v5.56Z" transform="translate(-632.24 -655.37)"/><g class="cls-2"><text class="cls-3" transform="translate(94.63 58.56)">T</text><text class="cls-3" transform="translate(104.1 58.56)">echnologies</text></g><path class="cls-4" d="M686.84,703.44a3,3,0,0,0-2-.23,2.25,2.25,0,0,0-1.5.64l-.56-.94-.35.63-.38-.71-.28.64h0c-.5-.57-.93-.09-1.43.08l-.07-.6c-.61.12-1.23,1.16-1.84-.11-.32.49-.58.74-1.09.18a.62.62,0,0,0-.85-.11.66.66,0,0,0-.22.35l-1.24.14,0-.49-.32.28-.39-.8-.17.7-.43-.13-.08.55h0a4.14,4.14,0,0,0-1.7-.09,3.1,3.1,0,0,0-1.7,1.56,3.44,3.44,0,0,0-.14,2.38c-.64.33-1.13.74-.48,1.55.1.13,0,.54-.13.71a1.24,1.24,0,0,0-.26,1.32.86.86,0,0,1-.15.66,7,7,0,0,1-.75.79l.6.81-.52.1c.1.13.17.25.11.15-.26.56-.49,1.13-.7,1.7a1.33,1.33,0,0,1-1.42,1c-.11,0-.22.22-.24.25-1.84-1.62-1.87-3.88-1.88-6-.48-.91.36-1.86-.48-2.65-.15-.14-.1-.48-.19-.7a4.45,4.45,0,0,0-.43-.61l.33.17,0-.13-.39,0,.27-1.1s-.21-.08-.21-.11c.09-.53.21-1.05.36-1.73l-.78-.51c.85-.78.76-2.63-.39-3.82l.78-.42a2.92,2.92,0,0,1-.57-2.13,9.89,9.89,0,0,0-.18-2.59c0-.37,0-.75,0-1.19,0,0-.22-.05-.22-.12a1.23,1.23,0,0,1,.12-.59,3.28,3.28,0,0,1,.42-.56c-.21-.15-.42-.3-.63-.43a4.85,4.85,0,0,0-.66-.3l.75-.31-1-.68.61-.23-.67-.81.85-.19v-.23l-1.09-.42.72-.12.27-.85-.81-.35.33-.34-.76-.38.56-.15c0-.54-.09-1.07-.14-1.6l.27-.1-.78-.38.68-.58-.12.06.07.08,0-.14c0-.3-.07-.59-.11-.89s-.06-.61-.1-.91c-.11-.68-.22-1.36-.32-2-.06-.37-.08-.74-.16-1.1s-.23-.74-.36-1.13l.47.08a2.47,2.47,0,0,0-.21-.75,3.41,3.41,0,0,1-.42-2.19c0-.17-.21-.35-.32-.53-.15.45-.26.75-.37,1.05,0,.14-.14.33-.1.43a1,1,0,0,1,0,1.31c-.12.15.13.57.15.85a2,2,0,0,1-.14.64h-.22l.35.49-.38.6h0a3,3,0,0,0-.42.15c.08.43.2.85.32,1.33l-.5.11.57.31-.32.51.76.29-.85.29.42.55-.53,0v.9l.39.22-.58.38.85.24-.71.42c.31.36.95.6.12,1l.58.33-.67.21.39.35c-.15.39-.32.79-.49,1.19l-.13.07h.5l.09.85c-.08.08-.43.26-.43.43a2.81,2.81,0,0,1-.29,1.27,3.41,3.41,0,0,0,.14,2.19,1.3,1.3,0,0,1-.77,1.83l.61.15c0,.49-.08,1-.11,1.54s0,.88-.06,1.33h-.23l.46.65c-.09.5-.14.79-.19,1.09,0,.07,0,.17,0,.2-.52.36-.24,1-.58,1.48-.05.07,0,.25,0,.38V702c0,.38.12.75.13,1.13a8.34,8.34,0,0,1-.11,1.11l-.28.06a3.27,3.27,0,0,1,.13.54c0,.79.17,1.59-.55,2.21-.11.09-.06.38-.09.67-1.73.47-1.73.47-2.23.12a20.56,20.56,0,0,1-1.15-3.25,2.38,2.38,0,0,0-.48-.52,1.81,1.81,0,0,0-.59-.17l.54-1.08-.85-.07.42-.59-.72-.26.39-.31-.73-1.37.22-.23c-.83-.79-.85-1-.33-1.41l-.6-.86-1,.55.3.25-.55.3.22.06c-.08.92-.15,1.86-.28,2.78a2.68,2.68,0,0,1-.37,1.3c-.19.24-.7.21-1.06.32-.14.05-.24.19-.37.25s-.61.32-.68.25c-.43-.4-.81-.17-1.16,0a.77.77,0,0,1-1-.31.43.43,0,0,1,0-.12l-1.66.24c-.33,0-.66.08-1,.11l0,.23-.43-.49c-.24.12-.52.35-.61.29a2.71,2.71,0,0,0-2.26-.06c-.84.19-1.77-.22-2.58.31l-.1-.59-.54.39-.15-.51a2.29,2.29,0,0,1-2.41.18,1.14,1.14,0,0,0-.32-1.64l-.19-.5.39.08c.07-.32.12-.85.22-.88a3.89,3.89,0,0,1,1.12.21l.16-.37.38.43.22-.43.69.22c.31.11.62.37.91.34a3.83,3.83,0,0,0,1.09-.49l.43.43.45-.27.17.62.17-.69.54.66.1-.83.5.54.08-.74c.42.47.79,1,1.42.38l.31.49.82-.61c.71.47,3.71-.06,4.7-.9-.74-.77.12-1.44.14-2.17a5,5,0,0,1,.33-1.21l-.2-.06.85-.77h-.85c.22-.47.42-.87.59-1.27v-.2l-.09.11-.24-.07.92-1.64-.13-.09.06,0,.14.2.43-.85.47.31,0-.55,1.14.42.09-.18.47,1.13.51-.15-.14.43-.07.19h.22l.24.5.33.88-.19.12.29.05a3.88,3.88,0,0,0,0,1.32c.15.34.64.42,1,.63l-.64.25.82,1.27,0,.23,0,0,.11.17.59,0h0l-.34.15-.36.29,1.21.89a3.08,3.08,0,0,0,.14-2.6v-1.72l.42-.14-.42-.24.77-.47-1-.12.81-.56-.72-.31c.26-.34.65-.64.72-1s-.22-.69-.38-1.09a1.92,1.92,0,0,0,0-2.12,2.47,2.47,0,0,0,.61-2.21c-.13-.57-.59-1.37.23-1.95.1-.07-.1-.58-.18-.88s-.19-.63-.29-1c.56-.16.74-.46.21-.85l.59-.64-.72-.31c.18-1,.35-1.87.55-3,.45-.22.54-.61,0-1.16a.61.61,0,0,1-.2-.84.64.64,0,0,1,.31-.25c.12-.07.13-.32.19-.49.25-.6-.15-1.27.31-1.89s0-1.7.42-2.46c0-.08-.3-.4-.53-.68.12-.15.85-.34.28-.57.14-.6.46-1.17.34-1.64a7.44,7.44,0,0,1,0-2.62,4.77,4.77,0,0,1,.38-1.7c.16-.32-.2-.88-.26-1.34a5.32,5.32,0,0,1,0-1l.37-.06a2.19,2.19,0,0,1,.38-2.44l-.6-.66.48-.29-.51-.53.27-.11H658l-.06-.21a3.7,3.7,0,0,1,0-.94,1.82,1.82,0,0,1,1.95-1.27,2.92,2.92,0,0,0,.72-.18A1.66,1.66,0,0,1,661,657s.25.19.24.18c-.06.8-.1,1.51-.16,2.36l.47.56-.6.19.62.55h0l-.36.12.45.33c0,.64-.08,1.32-.13,2l.76.13-.69.42.65.37-.65.3.76,1.05-.48.28.62.5-.8.12.74,1.7-.52.25.65.38-.69.34.51.15c.05.63.13,1.2.15,1.77s0,.85-.06,1.28l-.23-.43-.2.19.42.21.43.75-.63.38.63.16q.08.43.18,1l-.49.15.58.19-.44.55.84-.07-.52.67.51.13-.4.25c.16.13.43.28.43.38-.09.66-.24,1.32-.37,2l.54.12-.43.6.8.42-.73.79.52.81a.93.93,0,0,0,.16,1.33,1.38,1.38,0,0,1,.14,1l.3,1.07-.23,0a1.94,1.94,0,0,0,.05.54,2.21,2.21,0,0,0,.3.45,7.32,7.32,0,0,0-.2.89,4.82,4.82,0,0,0,0,.93l0,2.3-.1.1h.19a3.24,3.24,0,0,1,.48.5c-.46.55.65,1.14,0,1.66.54.64-.21,1.65.64,2.19l-.21.23a2,2,0,0,0-.25-.14l.06.35a2.67,2.67,0,0,1,.42.47c.19.28.56.66,0,.67v1.43h.22v2.22l.58.85-.52.23c.11.3.23.6.33.9.15.47.6.94,0,1.42,0,0,.17.45.31.78l-.59.43.9.1-.49.81c.07.32.14.59.2.85l-.27.24.17.15.23-.26h.57l.11-1.2.46-.19a3.45,3.45,0,0,1,0-2.73c.33-.73.35-1.63,1.11-2.08a2.54,2.54,0,0,1,.65.06c.81.16,1.73-.3,2.44.47a.65.65,0,0,0,.52,0c.43-.12.85-.29,1.31-.45l.07.54h1.1l.63-1.07.23.68.73-.48-.31,1,.69-.42.16.42a5.28,5.28,0,0,1,.75-.67,6.71,6.71,0,0,1,1-.4l-.06.71.42-.33.15.63.37-.87c.42-.09.74.9,1.25.12l.66.39a2.88,2.88,0,0,1,.85-.26c.56.05,1.11.28,1.66.28a7.68,7.68,0,0,0,1.25-.37,2.18,2.18,0,0,1,.72.12l.26.17-.06-.36.58-.21c0-.1,0-.28.06-.72l.37.78.19-.33.57.59.5-.37c.06.54.06.54,1.91.28l-.22.43c.65.29.75.57.48,1.19a1.88,1.88,0,0,0-.06.53c-.08.64-.89.27-1.11.78-.12.28-.29.61-.74.42a2.35,2.35,0,0,0-.6-.08l-.06-.26-.36.63c-.08-.37-.13-.57-.19-.88l-.38.66-.37-.58-.16.61Z" transform="translate(-632.24 -655.37)"/></svg>