<svg id="Layer_1" data-name="Layer 1" xmlns="http://www.w3.org/2000/svg" viewBox="0 0 101.65 28.62"><defs><style>.cls-1,.cls-2{fill:#3454a4;}.cls-2{font-size:20.02px;stroke:#3454a4;stroke-miterlimit:10;font-family:ComicSansMS, Comic Sans MS;}</style></defs><path class="cls-1" d="M692.09,690.31a.61.61,0,0,0-.61.61.61.61,0,0,0,1.22,0A.61.61,0,0,0,692.09,690.31Z" transform="translate(-662.33 -681.84)"/><path class="cls-1" d="M694.77,690.2c0-.62-.06-1.15-.42-1.41a1.78,1.78,0,0,0-1-.19,3.49,3.49,0,0,0-.64,0c-.62.09-.78.34-1.37.43a2.34,2.34,0,0,1-.68,0c.05-2,.08-3.56.11-4a1.29,1.29,0,0,0-.08-.51,1.37,1.37,0,0,0-.48-.56,1.94,1.94,0,0,0-.66-.34,5.28,5.28,0,0,0-1.23,0c-.28,0-.5,0-.63,0a1.55,1.55,0,0,0-.19-.53c-.12-.22-.21-.4-.41-.48a.77.77,0,0,0-.55,0c-3.36.5-10.16,1.45-10.17,1.45,0,1.39,0,2.81,0,4.25s0,2.82,0,4.2l-.63,2.07c1.7-2.86,3.4-5.7,5.09-8.56a1.43,1.43,0,0,1,2.55.53q0,6.62.1,13.21a1.7,1.7,0,0,1-1.64,1.16,1.76,1.76,0,0,1-1.34-.87q0-3.57,0-7.16l-4.71,8.32a1.47,1.47,0,0,1-2.5-.44c0-3.79,0-7.59-.05-11.38l-7.54,13.54a1.32,1.32,0,0,1-2.26-1.29l9.32-16.72a4.41,4.41,0,0,1,.53-1.59c.06-.09.2-.27.36-.46a2.72,2.72,0,0,1,.41-.42,1.3,1.3,0,0,1,.54-.32,1.28,1.28,0,0,1,.6,0,.88.88,0,0,1,.3.16,1,1,0,0,1,.12-.17,1.44,1.44,0,0,0-.81-.23,1.54,1.54,0,0,0-.94.38,8.57,8.57,0,0,0-.89,1.23,9,9,0,0,0-.65,1.35c-5.68,1.24-7.81,1.46-8.41,1.3a1.17,1.17,0,0,0-.72,0,1.61,1.61,0,0,0-.86,1q0,8.45,0,16.87a.79.79,0,0,0,.14.59.8.8,0,0,0,.67.3l21.09,0c.66-.13.9-.37,1-.58s.09-.35.27-.75a2.09,2.09,0,0,1,.16-.32c.27-.28.77,0,1.84,0,.55,0,.68,0,.74-.08a1.6,1.6,0,0,0,.65-1,3.47,3.47,0,0,0,.09-.46c0-.62.33-3.78.75-8.18h.3a7.69,7.69,0,0,0,3.68-1.18,2.49,2.49,0,0,0,1-1.15A2.66,2.66,0,0,0,694.77,690.2Zm-7.35,10.74a.67.67,0,0,1-.25.44.84.84,0,0,1-.46.07,6.23,6.23,0,0,1-.73-.07q.76-8.37,1.52-16.72c0-.26.06-.45.08-.57s0-.24.07-.27.27,0,.57.11a1.22,1.22,0,0,1,.52.3.83.83,0,0,1,.21.49C688.84,686,687.56,700.28,687.42,700.94Zm4.67-8.76a1.27,1.27,0,0,1,0-2.53,1.27,1.27,0,1,1,0,2.53Z" transform="translate(-662.33 -681.84)"/><text class="cls-2" transform="translate(29.41 21.87)">obikwik</text></svg>