<svg id="Layer_1" data-name="Layer 1" xmlns="http://www.w3.org/2000/svg" viewBox="0 0 379.25 81.73"><defs><style>.cls-1{fill:#3b4752;}.cls-2{fill:#b52367;}.cls-3{fill:#62b0da;}</style></defs><g id="Nextuple-Logo_NO-Tagline" data-name="Nextuple-Logo NO-Tagline"><g id="nextuplelogo_WITHTAG_FINAL_fullcolor-Copy" data-name="nextuplelogo WITHTAG FINAL fullcolor-Copy"><g id="Group"><path id="Path" class="cls-1" d="M639.74,700.59a1.9,1.9,0,0,0-.12.77,1,1,0,0,0,.22.7.76.76,0,0,0,.6.25,1.63,1.63,0,0,0,1.31-.67c.36-.45.6-.67.73-.67s.38.14.51.42a2.45,2.45,0,0,1,.19,1A5.72,5.72,0,0,1,642,706a9.12,9.12,0,0,1-3.72,2.86,14.07,14.07,0,0,1-5.89,1.12,10.51,10.51,0,0,1-6.68-2,6.42,6.42,0,0,1-2.55-5.18,14.59,14.59,0,0,1,1.15-5.28l3.5-9.17a4,4,0,0,0,.32-1.33,1.67,1.67,0,0,0-.54-1.31,2,2,0,0,0-1.31-.47,3.73,3.73,0,0,0-2.67,1.3,7.62,7.62,0,0,0-1.85,3.22l-3.94,13a4,4,0,0,0-.26,1.34,2.21,2.21,0,0,0,.32,1.24,5.22,5.22,0,0,0,.89,1,3,3,0,0,1,.64.7.94.94,0,0,1,.06.76,1.9,1.9,0,0,1-1.2,1.21,8.79,8.79,0,0,1-3,.38H600.73a4.08,4.08,0,0,1-2.38-.54,1.3,1.3,0,0,1-.54-1.43,2.52,2.52,0,0,1,1.33-1.34,5.66,5.66,0,0,0,1.59-1.21,5.52,5.52,0,0,0,1.08-2.22l5.67-18.4a2.47,2.47,0,0,0,.13-.88,1.81,1.81,0,0,0-.29-1.09,7.17,7.17,0,0,0-.93-1,4,4,0,0,1-.88-.89,1.13,1.13,0,0,1-.07-1c.25-1,1.6-1.83,4-2.58a25.73,25.73,0,0,1,7.57-1.11,7,7,0,0,1,5,1.75,5.89,5.89,0,0,1,1.66,4.87,15,15,0,0,1,5.53-5.19,14.34,14.34,0,0,1,6.37-1.43,8.57,8.57,0,0,1,6.26,2.35,8.22,8.22,0,0,1,2.39,6.11,12.27,12.27,0,0,1-.63,3.88Z" transform="translate(-514.28 -659.22)"/><path id="Shape" class="cls-1" d="M679.2,678a7.81,7.81,0,0,1,3.62,6.59,9.09,9.09,0,0,1-.25,2.22,8.3,8.3,0,0,1-5.32,6A26.74,26.74,0,0,1,667,694.61a39.44,39.44,0,0,1-5.6-.38c0,2.21.55,3.76,1.78,4.64a8.6,8.6,0,0,0,5.16,1.34,12.24,12.24,0,0,0,2.93-.35c.92-.23,2.12-.58,3.55-1.05a9.42,9.42,0,0,1,2.43-.64c.47,0,.69.28.69.83a7.79,7.79,0,0,1-1.65,4.68,13.56,13.56,0,0,1-5.09,4.17,17.87,17.87,0,0,1-8.15,1.72q-7,0-11.58-3.57t-4.52-10.37a23.25,23.25,0,0,1,.51-4.46q1.59-7.81,7-11.8a21.39,21.39,0,0,1,13.08-4Q675.58,675.39,679.2,678Zm-16.67,12.5A4.43,4.43,0,0,0,666.6,688a10.56,10.56,0,0,0,1.33-5.54c0-1.18-.38-1.77-1-1.77-.47,0-1,.37-1.66,1.1a12.83,12.83,0,0,0-1.88,3.35,30.43,30.43,0,0,0-1.56,5.28A3.22,3.22,0,0,0,662.53,690.47Z" transform="translate(-514.28 -659.22)"/><path id="Path-2" data-name="Path" class="cls-1" d="M715.69,660.71a4.76,4.76,0,0,1,1.32,3.42,6.36,6.36,0,0,1-.3,1.89,5.07,5.07,0,0,1-1.57,2.48,3.7,3.7,0,0,1-2.36.82,5.12,5.12,0,0,1-3-1l-2.43,2.28q1.21,3.3,2,4.91a7.71,7.71,0,0,0,1.26,2.06,1.57,1.57,0,0,0,1.11.47,2.09,2.09,0,0,0,.88-.27,2,2,0,0,1,.83-.27.58.58,0,0,1,.48.27,1.23,1.23,0,0,1,.2.7,3.89,3.89,0,0,1-.11.73,6.42,6.42,0,0,1-1.65,3,9.44,9.44,0,0,1-3,2.16,8.52,8.52,0,0,1-3.54.8,9.41,9.41,0,0,1-3.12-.46,6.67,6.67,0,0,1-2.66-2.06,20.17,20.17,0,0,1-2.78-4.81l-1.2,2.72a10.82,10.82,0,0,1-2.36,3.61,4.1,4.1,0,0,1-2.8,1.05,4.73,4.73,0,0,1-3.49-1.36,4.67,4.67,0,0,1-1.36-3.45,6,6,0,0,1,.3-1.89A5.07,5.07,0,0,1,687.9,676a3.7,3.7,0,0,1,2.36-.82,5.19,5.19,0,0,1,3,1l2.42-2.29c-.77-2.19-1.41-3.84-1.89-4.93a7,7,0,0,0-1.24-2.08,1.65,1.65,0,0,0-1.15-.46,1.88,1.88,0,0,0-.84.26,1.9,1.9,0,0,1-.8.27c-.49,0-.73-.34-.73-1a3.64,3.64,0,0,1,.1-.63,7.46,7.46,0,0,1,3.06-4.27,8.68,8.68,0,0,1,5.19-1.75,8.18,8.18,0,0,1,3.08.54,7,7,0,0,1,2.67,2.13,20.42,20.42,0,0,1,2.7,4.66l1.36-3.06a9.23,9.23,0,0,1,2.24-3.3,4.77,4.77,0,0,1,6.25.42Z" transform="translate(-514.28 -659.22)"/><path id="Path-3" data-name="Path" class="cls-1" d="M747.39,677.05a1.65,1.65,0,0,1,.67,1.4,4.87,4.87,0,0,1-.13.89,3.6,3.6,0,0,1-3.81,2.8h-3.7l-4.77,15.71a6.31,6.31,0,0,0-.31,2,1.8,1.8,0,0,0,.64,1.59,3,3,0,0,0,1.78.44,15.94,15.94,0,0,0,2.54-.25,5.44,5.44,0,0,1,1.33-.19.79.79,0,0,1,.67.28,1.18,1.18,0,0,1,.23.73c0,.85-.58,1.88-1.88,3.09a16.47,16.47,0,0,1-5.25,3.12,19.82,19.82,0,0,1-7.32,1.31,11.14,11.14,0,0,1-6.93-2,6.39,6.39,0,0,1-2.62-5.41,9,9,0,0,1,.52-3l4.07-12.6a6.46,6.46,0,0,0,.31-1.72,3.83,3.83,0,0,0-.59-2.16,10.35,10.35,0,0,0-1.69-1.85,8.45,8.45,0,0,1-1.34-1.49,1.83,1.83,0,0,1-.19-1.43A2.15,2.15,0,0,1,720.7,677a5.9,5.9,0,0,1,2.61-.44h3.56l4-4a14.44,14.44,0,0,1,3.84-2.93,10.72,10.72,0,0,1,4.55-.83c2.68,0,4,1,4,3.06a6.33,6.33,0,0,1-.25,1.78l-.89,2.93h3.37A3,3,0,0,1,747.39,677.05Z" transform="translate(-514.28 -659.22)"/><path id="Path-4" data-name="Path" class="cls-1" d="M783.51,700.59a3.41,3.41,0,0,0-.14.77,1,1,0,0,0,.23.7.76.76,0,0,0,.61.25,1.62,1.62,0,0,0,1.3-.67c.36-.45.61-.67.74-.67s.39.14.54.42a2.15,2.15,0,0,1,.21,1,5.34,5.34,0,0,1-1.27,3.53,9.91,9.91,0,0,1-3.75,2.9,12.4,12.4,0,0,1-5.41,1.15,10.42,10.42,0,0,1-6-1.53,6.79,6.79,0,0,1-2.85-4,16.07,16.07,0,0,1-5.07,3.85,13.06,13.06,0,0,1-5.63,1.31,12.4,12.4,0,0,1-7.47-2.2,7.15,7.15,0,0,1-3-6.14,11.55,11.55,0,0,1,.63-3.7l4.08-13.3a3.24,3.24,0,0,0,.18-1,1.72,1.72,0,0,0-.32-1.11,3.92,3.92,0,0,0-1-.87,4.08,4.08,0,0,1-.89-.88,1.21,1.21,0,0,1-.06-1c.26-1,1.59-1.84,4-2.58a25.68,25.68,0,0,1,7.57-1.11q3.69,0,5.4,1.4a4.62,4.62,0,0,1,1.73,3.82,9,9,0,0,1-.45,2.79l-4,13.24a3.74,3.74,0,0,0-.26,1.34,1.66,1.66,0,0,0,.51,1.33,1.94,1.94,0,0,0,1.34.45,2.86,2.86,0,0,0,2-.7,7.72,7.72,0,0,0,1.53-2.35l3.87-12.8a2.78,2.78,0,0,0,.2-1,1.82,1.82,0,0,0-.32-1.12,5.37,5.37,0,0,0-.9-.86,3.8,3.8,0,0,1-.88-.89,1.17,1.17,0,0,1-.06-1c.2-1,1.52-1.83,3.94-2.57a25.73,25.73,0,0,1,7.57-1.11c2.46,0,4.28.46,5.44,1.4a4.57,4.57,0,0,1,1.75,3.75,10.24,10.24,0,0,1-.5,2.86Z" transform="translate(-514.28 -659.22)"/><path id="Shape-2" data-name="Shape" class="cls-1" d="M830.35,678.7q2.79,3.24,2.79,8.85a26.6,26.6,0,0,1-.82,6.3q-1.92,7.89-7.14,12A18.94,18.94,0,0,1,813.1,710a15.22,15.22,0,0,1-7.64-1.85l-2,6.81a3.94,3.94,0,0,0-.25,1.34,2,2,0,0,0,.32,1.18,5,5,0,0,0,.83.92,3.87,3.87,0,0,1,.67.83,1,1,0,0,1,0,.76,1.81,1.81,0,0,1-1.2,1.18,9.27,9.27,0,0,1-2.94.35H786.31a4.17,4.17,0,0,1-2.39-.54,1.08,1.08,0,0,1-.41-1.37,1.7,1.7,0,0,1,.44-.83,2.79,2.79,0,0,1,.89-.57,7.65,7.65,0,0,0,1.53-1.31,5.85,5.85,0,0,0,1-2.13l9.29-30.48a3,3,0,0,0,.18-1,1.8,1.8,0,0,0-.31-1.11,4.86,4.86,0,0,0-.95-.86,3.87,3.87,0,0,1-.89-.89,1.1,1.1,0,0,1-.06-1c.24-1,1.59-1.83,4-2.58a25.73,25.73,0,0,1,7.57-1.11,7.38,7.38,0,0,1,4.62,1.4A5.35,5.35,0,0,1,812.9,681q4.33-5.54,9.74-5.53A9.69,9.69,0,0,1,830.35,678.7Zm-13.56,7.83a2.55,2.55,0,0,0-.42-1.75,1.59,1.59,0,0,0-1.18-.42,3.1,3.1,0,0,0-1.46.55,6.25,6.25,0,0,0-1.78,1.81l-5,16.67a2.51,2.51,0,0,0,1.85.77,4.32,4.32,0,0,0,3.28-1.95c1-1.28,2.11-3.9,3.21-7.85A36.42,36.42,0,0,0,816.79,686.53Z" transform="translate(-514.28 -659.22)"/><path id="Path-5" data-name="Path" class="cls-1" d="M859.07,663.75a4.62,4.62,0,0,1,1.75,3.82,8.76,8.76,0,0,1-.44,2.73l-10,32.45a6.13,6.13,0,0,0-.19,1.34,2.37,2.37,0,0,0,.32,1.31,4.09,4.09,0,0,0,.9.92,7.09,7.09,0,0,1,.63.73.82.82,0,0,1,.06.73,2.06,2.06,0,0,1-1.27,1.21,8.27,8.27,0,0,1-2.93.38H833.4a4.19,4.19,0,0,1-2.41-.54,1.2,1.2,0,0,1-.52-1.43,2.51,2.51,0,0,1,1.33-1.33,5.89,5.89,0,0,0,1.6-1.22,5.8,5.8,0,0,0,1.07-2.22l9.68-31.75a2.38,2.38,0,0,0,.05-1.83c-.4-.63-1.58-.34-2.21-.34a3,3,0,0,1-2.18-.57c-1.21-1.26,2.48-3.2,3.44-3.64a24.27,24.27,0,0,1,8-2.06c.77-.06,1.57-.1,2.35-.1C856.09,662.35,857.91,662.81,859.07,663.75Z" transform="translate(-514.28 -659.22)"/><path id="Shape-3" data-name="Shape" class="cls-1" d="M889.91,678a7.81,7.81,0,0,1,3.62,6.59,9.61,9.61,0,0,1-.25,2.22,8.34,8.34,0,0,1-5.32,6,26.79,26.79,0,0,1-10.28,1.81,39.54,39.54,0,0,1-5.6-.38q-.06,3.32,1.79,4.64a8.57,8.57,0,0,0,5.15,1.34,12.24,12.24,0,0,0,2.93-.35c.93-.23,2.12-.58,3.56-1.05a9.38,9.38,0,0,1,2.42-.64c.47,0,.7.28.7.83a7.8,7.8,0,0,1-1.66,4.68,13.49,13.49,0,0,1-5.09,4.17,17.83,17.83,0,0,1-8.14,1.72q-7.07,0-11.59-3.57t-4.51-10.37a23.25,23.25,0,0,1,.51-4.46q1.59-7.81,7-11.8a21.36,21.36,0,0,1,13.07-4Q886.28,675.39,889.91,678Zm-16.68,12.5a4.44,4.44,0,0,0,4.08-2.48,10.75,10.75,0,0,0,1.33-5.54q-.06-1.77-1-1.77c-.46,0-1,.37-1.65,1.1a12.55,12.55,0,0,0-1.88,3.35,29.58,29.58,0,0,0-1.56,5.28A3.24,3.24,0,0,0,873.23,690.47Z" transform="translate(-514.28 -659.22)"/></g><polygon id="Path-6" data-name="Path" class="cls-2" points="41.32 60.99 22.55 48.17 41.32 35.35 60.09 48.17 41.32 60.99"/><polygon id="Path-7" data-name="Path" class="cls-2" points="20.03 25.62 1.26 12.81 20.03 0 38.8 12.81 20.03 25.62"/><polygon id="Path-8" data-name="Path" class="cls-3" points="18.77 46.38 0 33.56 0 14.78 18.77 27.59 18.77 46.38"/><polygon id="Path-9" data-name="Path" class="cls-2" points="62.34 25.62 43.57 12.81 62.34 0 81.12 12.81 62.34 25.62"/><polygon id="Path-10" data-name="Path" class="cls-3" points="61.09 46.38 42.31 33.56 42.32 14.78 61.09 27.59 61.09 46.38"/><polygon id="Path-11" data-name="Path" class="cls-3" points="40.07 81.73 21.29 68.92 21.29 50.14 40.07 62.96 40.07 81.73"/></g></g></svg>