<svg id="Layer_1" data-name="Layer 1" xmlns="http://www.w3.org/2000/svg" viewBox="0 0 279.36 92.76"><defs><style>.cls-1{fill:#05509f;}.cls-2{fill:#fff;}</style></defs><path class="cls-1" d="M904.63,436.4c3.81,21.81-55.56,50.37-132.62,63.79S629.42,506.81,625.62,485s55.59-50.36,132.63-63.77S900.84,414.59,904.63,436.4Z" transform="translate(-625.44 -414.32)"/><polygon class="cls-2" points="206.67 54.46 206.28 31.78 213.43 31.78 213.43 60.36 203.15 60.36 196.01 36.91 195.85 36.91 196.25 60.36 189.14 60.36 189.14 31.78 199.87 31.78 206.51 54.46 206.67 54.46"/><polygon class="cls-2" points="76.69 34.46 72.73 60.66 64.93 60.66 70.28 31.78 83.13 31.78 88.47 60.66 80.7 60.66 76.85 34.46 76.69 34.46"/><polygon class="cls-2" points="110.37 53.86 113.94 31.78 125.72 31.78 126.34 60.66 119.12 60.66 118.93 34.7 118.78 34.7 113.96 60.66 106.63 60.66 101.8 34.7 101.64 34.7 101.46 60.66 94.22 60.66 94.87 31.78 106.65 31.78 110.21 53.86 110.37 53.86"/><path class="cls-2" d="M678.21,466.84a3.75,3.75,0,0,1,.07,2.14c-.24,1-.9,1.94-2.81,1.94s-2.91-1-2.91-2.62v-2.8h-7.75v2.24c0,6.43,5.07,8.38,10.5,8.38,5.23,0,9.53-1.78,10.21-6.6a14.07,14.07,0,0,0,0-4.75c-1.21-6-12.18-7.85-13-11.23a3.74,3.74,0,0,1,0-1.52,2.38,2.38,0,0,1,2.64-1.94,2.47,2.47,0,0,1,2.68,2.63v1.78H685v-2c0-6.29-5.65-7.27-9.73-7.27-5.14,0-9.34,1.69-10.11,6.4a9.9,9.9,0,0,0,.07,3.9C666.47,461.38,676.72,463.09,678.21,466.84Z" transform="translate(-625.44 -414.32)"/><path class="cls-2" d="M772.13,466.78a3.68,3.68,0,0,1,.07,2.12c-.24,1-.89,1.92-2.79,1.92a2.56,2.56,0,0,1-2.88-2.59v-2.77h-7.67v2.21c0,6.37,5,8.29,10.4,8.29,5.17,0,9.43-1.76,10.1-6.53a13.81,13.81,0,0,0,0-4.69c-1.21-6-12.06-7.78-12.87-11.13a3.59,3.59,0,0,1,0-1.49,2.36,2.36,0,0,1,2.62-1.92,2.43,2.43,0,0,1,2.65,2.59v1.76h7.14v-2c0-6.22-5.6-7.2-9.65-7.2-5.08,0-9.25,1.68-10,6.35a10.08,10.08,0,0,0,.07,3.86C760.51,461.38,770.66,463.08,772.13,466.78Z" transform="translate(-625.44 -414.32)"/><path class="cls-2" d="M796.39,470.66a2.59,2.59,0,0,0,2.77-2.09,6.41,6.41,0,0,0,.07-1.11V446.09h7.3v20.72c0,.53,0,1.62-.06,1.89-.52,5.39-4.78,7.14-10.08,7.14s-9.58-1.75-10.09-7.14c0-.27-.08-1.37-.06-1.89V446.09h7.29v21.37a7.45,7.45,0,0,0,.07,1.1A2.64,2.64,0,0,0,796.39,470.66Z" transform="translate(-625.44 -414.32)"/><path class="cls-2" d="M856.65,470.36a2.7,2.7,0,0,0,3-2.09,6.56,6.56,0,0,0,.07-1.1V463h-3v-4.22H867v7.76c0,.54,0,.94-.1,1.9-.48,5.26-5.05,7.13-10.16,7.13s-9.68-1.87-10.17-7.13c-.08-1-.09-1.36-.1-1.9V454.36c0-.52.07-1.42.12-1.91.64-5.4,5-7.14,10.15-7.14s9.61,1.73,10.14,7.14a17.33,17.33,0,0,1,.06,1.91v1h-7.28V453.7a6.63,6.63,0,0,0-.09-1.09,2.63,2.63,0,0,0-2.88-2.11,2.67,2.67,0,0,0-2.88,2.11,6.37,6.37,0,0,0-.12,1.36v13.21a6.5,6.5,0,0,0,.07,1.1A2.68,2.68,0,0,0,856.65,470.36Z" transform="translate(-625.44 -414.32)"/></svg>