<svg id="Layer_1" data-name="Layer 1" xmlns="http://www.w3.org/2000/svg" xmlns:xlink="http://www.w3.org/1999/xlink" viewBox="0 0 906.9 800.86"><defs><style>.cls-1,.cls-13,.cls-5,.cls-8{fill:none;}.cls-2{clip-path:url(#clip-path);}.cls-3{clip-path:url(#clip-path-2);}.cls-4{fill:url(#linear-gradient);}.cls-5{stroke:#bdbcbc;stroke-width:1.33px;}.cls-5,.cls-8{stroke-miterlimit:5.33;}.cls-6{clip-path:url(#clip-path-3);}.cls-7{opacity:0.2;}.cls-8{stroke:#231f20;stroke-width:1.16px;}.cls-9{fill:#9b5ded;}.cls-12,.cls-14,.cls-9{fill-rule:evenodd;}.cls-10,.cls-12{opacity:0;}.cls-11{font-size:15px;}.cls-11,.cls-19,.cls-20{fill:#fff;}.cls-11,.cls-15,.cls-17,.cls-18,.cls-19,.cls-20,.cls-21{font-family:ArialMT, Arial;}.cls-13,.cls-16{stroke:#400f60;stroke-linejoin:round;stroke-width:3px;}.cls-14,.cls-16{fill:#d7c9f4;}.cls-15{font-size:16.73px;}.cls-15,.cls-18{fill:#f4f4f9;}.cls-17{font-size:16.01px;fill:#fafafc;}.cls-18{font-size:14.58px;}.cls-19{font-size:17.74px;}.cls-20{font-size:15.62px;}.cls-21{font-size:15.6px;fill:#f7f7f9;}</style><clipPath id="clip-path" transform="translate(118.13 107.99)"><rect class="cls-1" width="720" height="405"/></clipPath><clipPath id="clip-path-2" transform="translate(118.13 107.99)"><rect class="cls-1" x="-13.03" y="-107.56" width="800" height="800"/></clipPath><linearGradient id="linear-gradient" x1="-599.59" y1="742.34" x2="-598.59" y2="742.34" gradientTransform="matrix(800, 0, 0, -800, 479658.06, 594160.97)" gradientUnits="userSpaceOnUse"><stop offset="0" stop-color="#fff"/><stop offset="1" stop-color="#e0e0e0"/></linearGradient><clipPath id="clip-path-3" transform="translate(118.13 107.99)"><rect class="cls-1" x="-13.1" y="-107.63" width="727.13" height="800.45"/></clipPath></defs><g class="cls-2"><g id="g7295"><g id="g7297"><g class="cls-3"><g id="g7299"><g id="g7305"><g id="g7307"><g id="g7313"><g id="g7315"><path id="path7323" class="cls-4" d="M787,692.44H-13v-800H787Z" transform="translate(118.13 107.99)"/></g></g></g></g><path id="path7325" class="cls-5" d="M781.91,692.44c-53.45-88.63-118-179.94-165.12-272.22-38.38-75.26-64.42-149.9-66.71-211.8-2.19-61,18.24-110.84,46.19-151.77C624,16,657-15,674.45-55.15c6.54-15.08,9.61-32.88,9.11-52.41" transform="translate(118.13 107.99)"/><path id="path7327" class="cls-5" d="M759.91,692.44c-54.2-92-119.11-186-163.87-280.87C561,337.24,540,263.51,543.17,204.48,546.46,145,572.72,98.71,604.84,59.92c31.67-38.16,66.82-67.36,84-107.37,7.12-16.69,9.23-37.3,6.56-60.11" transform="translate(118.13 107.99)"/><path id="path7329" class="cls-5" d="M739.05,692.44c-55.8-95.7-121.5-192.48-163.92-290-32-73.52-48-146.27-39.37-202.46C544.63,142.19,576.56,99.37,613,62.8,648.4,27.14,685.77-.19,702.61-40c7.63-18.09,8.41-41.47,3.17-67.52" transform="translate(118.13 107.99)"/><path id="path7331" class="cls-5" d="M719.48,692.44C661.27,592.73,594.34,493.05,554.28,393,525.17,320.22,514.2,248.53,528,195.13c14.5-56,52-95.42,92.63-129.79,39.18-33.1,78.76-58.59,95.29-98.27,8-19.31,7.16-45.44-.94-74.63" transform="translate(118.13 107.99)"/><path id="path7333" class="cls-5" d="M701.35,692.44c-61.39-104-130-206.64-167.67-309C507.14,311.17,501.2,240.67,520,189.93c20.13-54.16,63-90.21,107.89-122.36C670.64,37,712.43,13.39,728.66-26.11,737-46.5,734.19-75.33,723-107.56" transform="translate(118.13 107.99)"/><path id="path7335" class="cls-5" d="M684.7,692.44C619.48,584.08,548.78,478.27,513.46,373.7c-24.18-71.78-25.23-141-1.63-189.21,25.65-52.22,73.71-85.06,122.87-115C681,41.39,724.92,19.68,740.86-19.59c8.62-21.33,3.63-52.82-10.78-88" transform="translate(118.13 107.99)"/><path id="path7337" class="cls-5" d="M669.56,692.44C600,579.61,526.76,470.56,493.76,364c-22.06-71.43-18.31-139.35,9.92-185.07,31.09-50.22,84.17-80,137.51-107.66,49.61-25.73,95.69-45.57,111.33-84.63,8.82-22.16,1.45-56.23-16.25-94.18" transform="translate(118.13 107.99)"/><path id="path7339" class="cls-5" d="M655.88,692.44c-74.41-117.31-150.46-229.69-181.2-338.09-20.12-71.16-11.74-137.69,20.93-181.11C532,125,589.93,98.23,647.33,72.76c52.79-23.42,100.94-41.4,116.29-80.24,9-22.88-.92-59.46-21.93-100.08" transform="translate(118.13 107.99)"/><path id="path7341" class="cls-5" d="M643.59,692.44C564.1,570.69,484.88,454.93,456.31,344.88c-18.35-71-5.54-136.08,31.39-177.31,41.44-46.2,104.08-70.2,165.44-93.49,28.93-11,56-21,78.44-33.69,19.86-11.2,35.59-24.29,42.58-42.27,9.11-23.52-3.44-62.53-27.73-105.68" transform="translate(118.13 107.99)"/><path id="path7343" class="cls-5" d="M632.58,692.44c-24-35.82-48.11-71.66-71.28-107.8-55.94-87.25-104.53-172.91-122.57-249C422,264.77,439,201.12,480,162c46.33-44.22,113.45-65.54,178.62-86.72,30.5-9.91,58.79-19,82.15-31,20.45-10.48,36.54-23.06,43.35-40.85,9.21-24.1-6-65.44-33.56-111" transform="translate(118.13 107.99)"/><path id="path7345" class="cls-5" d="M788.14-42.69c-7.25-19.51-19.13-41.69-34-64.87" transform="translate(118.13 107.99)"/><path id="path7347" class="cls-5" d="M623,692.44c-26.49-38.49-53-76.94-78.22-115.7C487.52,488.88,438.41,402.38,422,326.68c-15.29-70.81,5.77-133,50.6-170.24,51-42.27,122.36-61.11,191.19-80.19,32-8.91,61.48-17.06,85.66-28.37,16.63-7.77,30.37-17,38.69-29.2" transform="translate(118.13 107.99)"/><path id="path7349" class="cls-5" d="M788.14-55.36c-8-16.3-18.57-34-30.84-52.2" transform="translate(118.13 107.99)"/><path id="path7351" class="cls-5" d="M614.44,692.44c-29-41.05-57.79-82-85.12-123.25-58.54-88.44-108.23-175.8-123.15-251.12-14-70.8,10.88-131.56,59.35-167,55.42-40.41,130.83-56.84,203.12-74,33.41-7.9,64-15.23,89-25.88,12-5.1,22.46-11,30.53-18.17" transform="translate(118.13 107.99)"/><path id="path7353" class="cls-5" d="M788.14-63.58c-7.94-14-17.48-28.81-28.12-44" transform="translate(118.13 107.99)"/><path id="path7355" class="cls-5" d="M606.88,692.44C575.45,649,544.31,605.66,515,562c-59.81-89-110.12-177.19-123.69-252.16-12.74-70.82,15.62-130.2,67.54-163.92,59.56-38.62,138.8-52.79,214.35-68,34.73-7,66.34-13.5,92.06-23.53a131.3,131.3,0,0,0,22.9-11.3" transform="translate(118.13 107.99)"/><path id="path7357" class="cls-5" d="M788.14-69.6c-7.62-12.22-16.31-25-25.75-38" transform="translate(118.13 107.99)"/><path id="path7359" class="cls-5" d="M600.21,692.44c-33.85-45.8-67.24-91.32-98.51-137.21-61-89.54-112-178.53-124.3-253.16-11.65-70.86,20-128.9,75.14-161C516,104.09,598.8,92,677.42,78.59c35.94-6.14,68.52-11.88,94.92-21.33a149.41,149.41,0,0,0,15.8-6.61" transform="translate(118.13 107.99)"/><path id="path7361" class="cls-5" d="M788.14-74.18c-7.22-10.83-15.2-22-23.71-33.38" transform="translate(118.13 107.99)"/><path id="path7363" class="cls-5" d="M594.33,692.44c-36.17-48-71.73-95.58-104.86-143.56-62.14-90-113.73-179.79-124.94-254.11-10.65-70.93,24.06-127.71,82.17-158.37,67.05-35.33,153.19-45.47,234.64-57.21,37.07-5.35,70.54-10.36,97.55-19.28q4.79-1.57,9.25-3.33" transform="translate(118.13 107.99)"/><path id="path7365" class="cls-5" d="M788.14-78.78c-6.79-9.31-14.1-18.89-21.83-28.78" transform="translate(118.13 107.99)"/><path id="path7367" class="cls-5" d="M589.2,692.44c-38.4-50-76-99.53-110.89-149.47-63.2-90.5-115.4-181-125.62-255-4.84-35.35.57-67.91,15-93,15.77-27.29,41.77-47.59,73.58-62.93C511.69,98.24,600.87,89.86,685,79.71c38.1-4.61,72.35-9,100-17.39,1.09-.33,2.16-.67,3.23-1" transform="translate(118.13 107.99)"/><path id="path7369" class="cls-5" d="M788.14-81.41c-6.4-8.49-13.21-17.19-20.35-26.15" transform="translate(118.13 107.99)"/><path id="path7371" class="cls-5" d="M584.72,692.44c-40.47-51.86-80-103.18-116.54-154.9C404,446.63,351.24,355.5,341.93,281.75c-4.44-35.33,1.81-67.64,17.19-92.27,16.88-26.95,44.14-46.68,77.29-61.38,73.41-32.47,165.37-39.21,251.83-47.94,38-3.84,72.17-7.52,99.9-15" transform="translate(118.13 107.99)"/><path id="path7373" class="cls-5" d="M788.14-83.52q-9.09-11.73-19.09-24" transform="translate(118.13 107.99)"/><path id="path7375" class="cls-5" d="M580.87,692.44C538.46,638.88,497.13,586,459.11,532.6c-65-91.29-118.34-183-126.86-256.52-4.05-35.28,2.91-67.4,19.13-91.63,17.86-26.65,46.24-45.86,80.62-60C508.12,93.22,602.61,88,691.2,80.55c36.63-3,69.65-6,96.94-12.35" transform="translate(118.13 107.99)"/><path id="path7377" class="cls-5" d="M788.14-85.23q-8.64-10.9-18-22.33" transform="translate(118.13 107.99)"/><path id="path7379" class="cls-5" d="M577.57,692.44C533.41,637.36,490.46,583,451.09,528.19,385.29,436.57,331.5,344.31,323.68,271c-3.73-35.27,3.89-67.18,20.84-91.08,18.72-26.38,48.14-45.08,83.58-58.71C506.64,91.1,603.34,87.13,693.83,80.88c35.41-2.46,67.46-4.87,94.31-10.19" transform="translate(118.13 107.99)"/><path id="path7381" class="cls-5" d="M788.14-86.61q-8.25-10.24-17.13-21" transform="translate(118.13 107.99)"/><path id="path7383" class="cls-5" d="M574.79,692.44C529.07,636,484.69,580.38,444.13,524.32c-66.47-91.91-120.69-184.63-127.9-257.73-3.45-35.24,4.75-67,22.32-90.58,19.48-26.13,49.77-44.44,86.15-57.62,80.64-29.17,179.29-32,271.43-37.23,34.38-1.92,65.59-3.89,92-8.45" transform="translate(118.13 107.99)"/><path id="path7385" class="cls-5" d="M788.14-87.71q-7.92-9.72-16.4-19.85" transform="translate(118.13 107.99)"/><path id="path7387" class="cls-5" d="M572.49,692.44C525.43,634.88,479.82,578.16,438.22,521c-67-92.14-121.62-185.27-128.32-258.19-3.2-35.22,5.48-66.79,23.58-90.16,20.14-25.92,51.16-43.88,88.34-56.68C504.25,87.63,604.54,85.76,698.08,81.4c33.51-1.58,64-3.16,90.06-7.11" transform="translate(118.13 107.99)"/><path id="path7389" class="cls-5" d="M788.14-88.58q-7.67-9.3-15.81-19" transform="translate(118.13 107.99)"/><path id="path7391" class="cls-5" d="M570.65,692.44c-48.18-58.51-94.82-116.12-137.27-174.17C365.88,425.93,311,332.47,304.72,259.69c-3-35.2,6.06-66.66,24.61-89.82,20.65-25.76,52.31-43.4,90.13-55.9C503.36,86.3,605,85.24,699.69,81.59c32.81-1.26,62.72-2.57,88.45-6.07" transform="translate(118.13 107.99)"/><path id="path7393" class="cls-5" d="M788.14-89.22q-7.46-9-15.37-18.34" transform="translate(118.13 107.99)"/><path id="path7395" class="cls-5" d="M569.25,692.44c-49.07-59.25-96.52-117.56-139.64-176.31-67.86-92.5-123-186.22-128.94-258.88-2.84-35.19,6.53-66.56,25.42-89.55,21.07-25.62,53.19-43.07,91.54-55.31,85-27.12,187.73-27.6,283.31-30.66,32.26-1.06,61.73-2.15,87.2-5.3" transform="translate(118.13 107.99)"/><path id="path7397" class="cls-5" d="M788.14-89.67q-7.32-8.77-15-17.89" transform="translate(118.13 107.99)"/><path id="path7399" class="cls-5" d="M568.25,692.44c-49.7-59.78-97.73-118.59-141.34-177.85C358.79,422,303.49,328.08,297.78,255.5c-2.75-35.19,6.88-66.45,26-89.36,21.37-25.52,53.82-42.82,92.54-54.87C502.16,84.5,605.63,84.52,701.84,81.83c31.88-.87,61-1.84,86.3-4.76" transform="translate(118.13 107.99)"/><path id="path7401" class="cls-5" d="M788.14-89.94q-7.23-8.66-14.87-17.62" transform="translate(118.13 107.99)"/><path id="path7403" class="cls-5" d="M567.66,692.44c-50.09-60.1-98.48-119.22-142.37-178.77C357,421,301.63,327,296,254.45c-2.67-35.18,7.06-66.42,26.34-89.24,21.55-25.47,54.22-42.64,93.15-54.61,86.35-26.51,190.25-26.27,286.85-28.71,31.65-.8,60.6-1.68,85.76-4.46" transform="translate(118.13 107.99)"/><g id="g7405"><g id="g7465"><g class="cls-6"><g id="g7463" class="cls-7"><path id="path7413" class="cls-8" d="M-13,18c34.58,3.2,68.67,7.26,101.94,12.57,129.89,20.79,245.17,60.53,319,124.19C480.68,217.58,515,304.2,530.7,393.11c15.55,88.36,14.14,174.47,40.7,245.82a173.48,173.48,0,0,0,32.24,53.51" transform="translate(118.13 107.99)"/><path id="path7415" class="cls-8" d="M-13-12.89C33.19-8.1,78.53-1.81,122.25,6.94,247.3,32,355.91,78.73,420.26,148c64.79,69.89,88.52,162,97,255.17,8.28,91.82,2.33,179.43,29.11,250.16a147,147,0,0,0,22.4,39.08" transform="translate(118.13 107.99)"/><path id="path7417" class="cls-8" d="M-13-44.53c58.36,6.41,115.28,15.12,169.3,28.14C276.91,12.73,378.71,66.37,433.75,141.1c56.59,77,69.95,174.25,71.08,271.85,1.14,95.12-9.47,184.23,17.46,254.33a123.64,123.64,0,0,0,13.25,25.16" transform="translate(118.13 107.99)"/><path id="path7419" class="cls-8" d="M-13-76.25c71,7.88,139.67,19,203.63,37C307.25-6.41,402.15,54.08,448.13,134c48.2,84,51.37,186.33,45.15,288.32-6,98.27-21.23,188.88,5.85,258.31a105.35,105.35,0,0,0,5.47,11.77" transform="translate(118.13 107.99)"/><path id="path7421" class="cls-8" d="M-10.32-107c83,9,162.71,22.23,235.21,45.48C338-25.22,425.85,42,463.15,127c39.7,90.86,33,198.14,19.4,304.51-12.88,100.73-32.63,192.37-6.06,261" transform="translate(118.13 107.99)"/><path id="path7423" class="cls-8" d="M178-107a778.74,778.74,0,0,1,80.82,23.9C368.74-43.56,449.67,30.07,478.57,119.93c31.24,97.55,14.94,209.63-6,320.29C454.15,537.66,431.51,625.78,451,692.44" transform="translate(118.13 107.99)"/><path id="path7425" class="cls-8" d="M284.12-107q4.08,1.55,8.11,3.15c107.08,42.58,181.09,122.37,201.94,217,22.82,104-2.65,220.76-30.87,335.61-23.11,94.11-48.4,178.9-35.39,243.78" transform="translate(118.13 107.99)"/><path id="path7427" class="cls-8" d="M358.49-107c85.28,48,139.57,125.39,151.3,213.43,14.56,110.2-19.84,231.47-55.14,350.4-27,90.8-54.65,172.44-47.57,235.66" transform="translate(118.13 107.99)"/><path id="path7429" class="cls-8" d="M415.2-107c66.6,51.15,105.38,125.21,110,207,6.52,116.09-36.37,241.75-78.65,364.61-20,57.9-38.8,111.84-49.54,161.31-5.13,23.72-8.25,46.13-8,66.55" transform="translate(118.13 107.99)"/><path id="path7431" class="cls-8" d="M461.28-107c52.4,52.73,79.83,123.89,79.08,200.9C539.12,215.56,488.08,345.43,439.08,472c-22.93,59.25-44.29,114.13-56.85,164.25-4.94,19.8-8.39,38.65-9.51,56.15" transform="translate(118.13 107.99)"/><path id="path7433" class="cls-8" d="M500-107c41.27,53.42,60.07,122,55.1,195.12C546.3,215.08,487.63,349,432.1,479.15c-25.76,60.52-49.6,116.27-63.81,167a339.36,339.36,0,0,0-10,46.29" transform="translate(118.13 107.99)"/><path id="path7435" class="cls-8" d="M533.09-107C565.45-53.5,577.53,12.74,569.18,82.64c-15.87,132-81.88,269.75-143.58,403.26-28.5,61.7-54.51,118.28-70.38,169.55a366.17,366.17,0,0,0-9.55,37" transform="translate(118.13 107.99)"/><path id="path7437" class="cls-8" d="M561.81-107C587-53.71,593.72,10.43,582.66,77.59c-22.6,136.66-95.52,278-163.06,414.68C388.52,555.06,360.44,612.4,343,664.18c-3.25,9.68-6.09,19.12-8.42,28.26" transform="translate(118.13 107.99)"/><path id="path7439" class="cls-8" d="M586.88-107c19.28,52.93,21.75,115.18,8.5,180C566.47,213.93,487.12,358.7,414,498.27c-33.4,63.81-63.47,121.83-82.32,174.06-2.46,6.83-4.72,13.54-6.72,20.11" transform="translate(118.13 107.99)"/><path id="path7441" class="cls-8" d="M608.86-107c14.45,52.4,13.48,113-1.57,175.73-34.82,145-120.15,292.93-198.35,435.18-35.59,64.73-67.51,123.37-87.65,176q-2.44,6.35-4.61,12.56" transform="translate(118.13 107.99)"/><path id="path7443" class="cls-8" d="M631.67-107C641.36-55.49,635,3,618.33,64.81,578.05,213.47,487.27,364.34,404.28,509c-37.6,65.57-71.11,124.79-92.55,177.79-.76,1.88-1.5,3.76-2.22,5.62" transform="translate(118.13 107.99)"/><path id="path7445" class="cls-8" d="M648.34-107c6.32,51-2,108.19-19.9,168.39-45.28,152-141.08,305.51-228.38,452.42-39.25,66-74.17,125.53-96.69,178.68" transform="translate(118.13 107.99)"/><path id="path7447" class="cls-8" d="M662.83-107c3.59,50.44-6.37,106.48-25.25,165.33-49.73,155-150.12,310.86-241.31,459.77-39.47,64.35-74.57,122.4-98.11,174.39" transform="translate(118.13 107.99)"/><path id="path7449" class="cls-8" d="M675.3-107c1.37,49.91-10,104.94-29.6,162.64C592,213.19,487.63,371.23,392.92,521.87c-39.5,62.87-74.76,119.62-99.15,170.57" transform="translate(118.13 107.99)"/><path id="path7451" class="cls-8" d="M685.87-107c-.4,49.43-12.78,103.61-33.07,160.33-57.21,159.9-165,319.79-262.79,471.93-39.58,61.54-74.9,117.18-99.89,167.23" transform="translate(118.13 107.99)"/><path id="path7453" class="cls-8" d="M694.67-107C692.84-58,679.61-4.57,658.84,51.34c-60.2,161.84-171,323.29-271.3,476.72-39.49,60.44-74.88,115.12-100.39,164.38" transform="translate(118.13 107.99)"/><path id="path7455" class="cls-8" d="M701.78-107C698.84-58.4,684.94-5.5,663.8,49.77,601.18,213.2,487.93,375.93,385.52,530.41c-39.48,59.5-74.84,113.41-100.72,162" transform="translate(118.13 107.99)"/><path id="path7457" class="cls-8" d="M707.26-107C703.5-58.67,689.12-6.21,667.67,48.56,603.14,213.23,488.06,377,383.94,532.24,344.56,591.05,309.18,644.32,283,692.44" transform="translate(118.13 107.99)"/><path id="path7459" class="cls-8" d="M711.13-107c-4.32,48.18-19,100.33-40.69,154.75-65.84,165.56-182.37,330-287.63,485.86-39.39,58.27-74.71,111.12-101,158.88" transform="translate(118.13 107.99)"/><path id="path7461" class="cls-8" d="M713.45-107C708.79-59,693.86-7,672.1,47.18c-66.71,166.09-184,331-290,487.17-39.32,58-74.63,110.56-101.09,158.09" transform="translate(118.13 107.99)"/></g></g></g></g></g></g></g></g><g class="cls-2"><g class="cls-2"><path class="cls-9" d="M50.63,210.09h0c0-62,51.18-112.21,114.33-112.21a115.44,115.44,0,0,1,80.84,32.86,111.2,111.2,0,0,1,33.49,79.35c0,62-51.19,112.22-114.33,112.22S50.63,272.07,50.63,210.09Z" transform="translate(118.13 107.99)"/><rect class="cls-10" x="200.82" y="264.93" width="163.68" height="105.45"/><text class="cls-11" transform="translate(242.37 286.08)">Total Offers:</text><text class="cls-11" transform="translate(265.77 304.08)">210+</text><text class="cls-11" transform="translate(224.71 340.08)">Total Companies:</text><text class="cls-11" transform="translate(269.94 358.08)">80+</text><path class="cls-12" d="M247.29,68.73h0c50.11,29.62,81.13,83.61,80.88,140.76S296.44,317.84,246.09,343L171.83,202.5Z" transform="translate(118.13 107.99)"/><path class="cls-12" d="M247.29,68.73h0c50.11,29.62,81.13,83.61,80.88,140.76S296.44,317.84,246.09,343" transform="translate(118.13 107.99)"/><path class="cls-13" d="M247.29,68.73h0c50.11,29.62,81.13,83.61,80.88,140.76S296.44,317.84,246.09,343" transform="translate(118.13 107.99)"/><line class="cls-10" x1="389.82" y1="194.89" x2="437.07" y2="159.46"/><line class="cls-13" x1="389.82" y1="194.89" x2="437.07" y2="159.46"/><path class="cls-14" d="M318.94,41.34h0a5.9,5.9,0,0,1,5.9-5.9h205a5.91,5.91,0,0,1,5.91,5.9V65a5.91,5.91,0,0,1-5.91,5.91h-205a5.9,5.9,0,0,1-5.9-5.91Z" transform="translate(118.13 107.99)"/><path class="cls-13" d="M318.94,41.34h0a5.9,5.9,0,0,1,5.9-5.9h205a5.91,5.91,0,0,1,5.91,5.9V65a5.91,5.91,0,0,1-5.91,5.91h-205a5.9,5.9,0,0,1-5.9-5.91Z" transform="translate(118.13 107.99)"/><line class="cls-10" x1="437.07" y1="365.88" x2="501.56" y2="397.01"/><line class="cls-13" x1="437.07" y1="365.88" x2="501.56" y2="397.01"/><path class="cls-14" d="M377.44,285.63h0a5.9,5.9,0,0,1,5.9-5.9h205a5.91,5.91,0,0,1,5.91,5.9v23.63a5.91,5.91,0,0,1-5.91,5.9h-205a5.9,5.9,0,0,1-5.9-5.9Z" transform="translate(118.13 107.99)"/><path class="cls-13" d="M377.44,285.63h0a5.9,5.9,0,0,1,5.9-5.9h205a5.91,5.91,0,0,1,5.91,5.9v23.63a5.91,5.91,0,0,1-5.91,5.9h-205a5.9,5.9,0,0,1-5.9-5.9Z" transform="translate(118.13 107.99)"/><text class="cls-15" transform="translate(515.05 412.97)">Median CTC : 13 LPA</text><line class="cls-10" x1="448.04" y1="312.85" x2="529.04" y2="311.17"/><line class="cls-13" x1="448.04" y1="312.85" x2="529.04" y2="311.17"/><path class="cls-12" d="M410.91,187.71h0a7.39,7.39,0,0,1,7.39-7.39H620.37a7.39,7.39,0,0,1,7.39,7.39v29.58a7.39,7.39,0,0,1-7.39,7.39H418.3a7.39,7.39,0,0,1-7.39-7.39Z" transform="translate(118.13 107.99)"/><path class="cls-16" d="M410.91,187.71h0a7.39,7.39,0,0,1,7.39-7.39H620.37a7.39,7.39,0,0,1,7.39,7.39v29.58a7.39,7.39,0,0,1-7.39,7.39H418.3a7.39,7.39,0,0,1-7.39-7.39Z" transform="translate(118.13 107.99)"/><text class="cls-17" transform="translate(537.96 309.16)">Average CTC For top 25% : </text><text class="cls-18" transform="translate(538.96 326.42) scale(0.81 1)">19.1 LPA</text><line class="cls-10" x1="437.07" y1="258.15" x2="484.31" y2="222.72"/><line class="cls-13" x1="437.07" y1="258.15" x2="484.31" y2="222.72"/><path class="cls-14" d="M366.18,104.6h0a5.92,5.92,0,0,1,5.91-5.91h205a5.91,5.91,0,0,1,5.9,5.91v23.62a5.91,5.91,0,0,1-5.9,5.91h-205a5.92,5.92,0,0,1-5.91-5.91Z" transform="translate(118.13 107.99)"/><path class="cls-13" d="M366.18,104.6h0a5.92,5.92,0,0,1,5.91-5.91h205a5.91,5.91,0,0,1,5.9,5.91v23.62a5.91,5.91,0,0,1-5.9,5.91h-205a5.92,5.92,0,0,1-5.91-5.91Z" transform="translate(118.13 107.99)"/><rect class="cls-10" x="464.92" y="145.67" width="189" height="31.51"/><text class="cls-19" transform="translate(456.3 169.07)">Highes CTC : 46 LPA</text><rect class="cls-10" x="495.71" y="210.6" width="194.06" height="31.51"/><text class="cls-20" transform="translate(502.47 230.27)">Average CTC : 13.9 LPA</text><rect class="cls-10" y="118.59" width="357.73" height="94.54"/><line class="cls-10" x1="397.42" y1="430.3" x2="461.91" y2="461.43"/><line class="cls-13" x1="397.42" y1="430.3" x2="461.91" y2="461.43"/><path class="cls-14" d="M337.79,350.06h0a5.91,5.91,0,0,1,5.9-5.91h205a5.91,5.91,0,0,1,5.91,5.91v23.62a5.91,5.91,0,0,1-5.91,5.9h-205a5.9,5.9,0,0,1-5.9-5.9Z" transform="translate(118.13 107.99)"/><path class="cls-13" d="M337.79,350.06h0a5.91,5.91,0,0,1,5.9-5.91h205a5.91,5.91,0,0,1,5.91,5.91v23.62a5.91,5.91,0,0,1-5.91,5.9h-205a5.9,5.9,0,0,1-5.9-5.9Z" transform="translate(118.13 107.99)"/><text class="cls-21" transform="translate(464.4 476.42)">Placement percentage : 84%</text></g></g></g></svg>