<svg id="Layer_1" data-name="Layer 1" xmlns="http://www.w3.org/2000/svg" xmlns:xlink="http://www.w3.org/1999/xlink" viewBox="0 0 963.12 987.91"><defs><style>.cls-1,.cls-16,.cls-5,.cls-8{fill:none;}.cls-2{clip-path:url(#clip-path);}.cls-3{clip-path:url(#clip-path-2);}.cls-4{fill:url(#linear-gradient);}.cls-5{stroke:#bdbcbc;stroke-width:1.33px;}.cls-5,.cls-8{stroke-miterlimit:5.33;}.cls-6{clip-path:url(#clip-path-3);}.cls-7{opacity:0.2;}.cls-8{stroke:#231f20;stroke-width:1.16px;}.cls-9{fill:#465359;}.cls-10{clip-path:url(#clip-path-4);}.cls-11{font-size:36.05px;fill:#404040;}.cls-11,.cls-19,.cls-21{font-family:GillSansMT, Gill Sans MT;}.cls-12{fill:#ed8428;}.cls-13{fill:#969fa7;}.cls-14{fill:#f2f2f2;}.cls-15{fill:#d9d9d9;}.cls-16{stroke:#000;stroke-linejoin:round;}.cls-17,.cls-18,.cls-19{font-size:27.77px;}.cls-17{font-family:Calibri-Bold, Calibri;font-weight:700;}.cls-18,.cls-20{font-family:Calibri;}.cls-20,.cls-21{font-size:27.8px;}</style><clipPath id="clip-path" transform="translate(0.07 159.42)"><rect class="cls-1" x="6.22" y="-0.17" width="954.8" height="540.17"/></clipPath><clipPath id="clip-path-2" transform="translate(0.07 159.42)"><rect class="cls-1" y="-159" width="961.02" height="987.06"/></clipPath><linearGradient id="linear-gradient" x1="-479.4" y1="809.74" x2="-478.2" y2="809.74" gradientTransform="matrix(800, 0, 0, -800, 383519.98, 648129.96)" gradientUnits="userSpaceOnUse"><stop offset="0" stop-color="#fff"/><stop offset="1" stop-color="#e0e0e0"/></linearGradient><clipPath id="clip-path-3" transform="translate(0.07 159.42)"><rect class="cls-1" x="-0.08" y="-159.08" width="873.48" height="987.62"/></clipPath><clipPath id="clip-path-4" transform="translate(0.07 159.42)"><rect class="cls-1" width="960" height="540"/></clipPath></defs><g class="cls-2"><g id="g7295"><g id="g7297"><g class="cls-3"><g id="g7299"><g id="g7305"><g id="g7307"><g id="g7313"><g id="g7315"><path id="path7323" class="cls-4" d="M961,828.06H0V-159H961Z" transform="translate(0.07 159.42)"/></g></g></g></g><path id="path7325" class="cls-5" d="M954.94,828.06c-64.21-109.35-141.75-222-198.34-335.87-46.11-92.86-77.4-184.95-80.14-261.32-2.64-75.3,21.91-136.76,55.48-187.26,33.36-50.18,73-88.44,93.92-137.95,7.86-18.6,11.54-40.56,10.94-64.66" transform="translate(0.07 159.42)"/><path id="path7327" class="cls-5" d="M928.52,828.06C863.41,714.57,785.44,598.6,731.66,481.52c-42.09-91.71-67.38-182.68-63.5-255.52,3.94-73.39,35.49-130.5,74.08-178.36C780.29.56,822.5-35.47,843.09-84.84c8.56-20.58,11.09-46,7.89-74.16" transform="translate(0.07 159.42)"/><path id="path7329" class="cls-5" d="M903.46,828.06c-67-118.08-146-237.48-196.91-357.77-38.39-90.71-57.62-180.47-47.3-249.8,10.66-71.34,49-124.18,92.72-169.3,42.59-44,87.49-77.72,107.72-126.89,9.16-22.31,10.09-51.16,3.81-83.3" transform="translate(0.07 159.42)"/><path id="path7331" class="cls-5" d="M880,828.06c-69.93-123-150.33-246-198.44-369.4-35-89.85-48.16-178.3-31.6-244.19,17.42-69.15,62.42-117.74,111.27-160.14C808.25,13.49,855.79-18,875.65-66.92c9.64-23.83,8.6-56.07-1.13-92.08" transform="translate(0.07 159.42)"/><path id="path7333" class="cls-5" d="M858.17,828.06C784.43,699.79,702,573.1,656.75,446.78c-31.87-89.13-39-176.13-16.48-238.73,24.18-66.82,75.64-111.3,129.61-151C821.28,19.33,871.48-9.78,891-58.51c10-25.15,6.65-60.72-6.78-100.49" transform="translate(0.07 159.42)"/><path id="path7335" class="cls-5" d="M838.17,828.06C759.82,694.37,674.89,563.81,632.46,434.79c-29.05-88.57-30.3-174-2-233.45C661.32,136.91,719.06,96.39,778.11,59.5,833.68,24.78,886.49-2,905.63-50.47,916-76.78,910-115.63,892.69-159" transform="translate(0.07 159.42)"/><path id="path7337" class="cls-5" d="M820,828.06C736.37,688.85,648.44,554.3,608.8,422.8c-26.5-88.13-22-171.94,11.92-228.35,37.35-62,101.11-98.71,165.18-132.83,59.6-31.75,115-56.23,133.74-104.42,10.6-27.34,1.75-69.37-19.52-116.2" transform="translate(0.07 159.42)"/><path id="path7339" class="cls-5" d="M803.54,828.06C714.17,683.31,622.8,544.67,585.88,410.91,561.71,323.11,571.77,241,611,187.46,654.7,128,724.33,94.91,793.28,63.48,856.7,34.58,914.53,12.4,933-35.51c10.79-28.24-1.1-73.37-26.34-123.49" transform="translate(0.07 159.42)"/><path id="path7341" class="cls-5" d="M788.78,828.06c-95.49-150.22-190.64-293-225-428.83-22-87.58-6.66-167.9,37.7-218.77,49.79-57,125-86.61,198.75-115.35,34.76-13.52,67.23-26,94.23-41.57,23.85-13.82,42.74-30,51.14-52.15,11-29-4.13-77.15-33.31-130.39" transform="translate(0.07 159.42)"/><path id="path7343" class="cls-5" d="M775.56,828.06c-28.83-44.2-57.8-88.42-85.63-133C622.74,587.4,564.37,481.71,542.69,387.83c-20.13-87.45.35-166,49.58-214.3,55.66-54.56,136.29-80.87,214.57-107,36.64-12.23,70.62-23.48,98.69-38.21C930.09,15.39,949.42-.13,957.6-22.09c11.06-29.72-7.27-80.73-40.31-136.91" transform="translate(0.07 159.42)"/><path id="path7345" class="cls-5" d="M962.43-79c-8.71-24.07-23-51.44-40.81-80" transform="translate(0.07 159.42)"/><path id="path7347" class="cls-5" d="M764,828.06c-31.82-47.5-63.62-94.93-94-142.75C601.3,576.91,542.3,470.18,522.59,376.78c-18.36-87.37,6.94-164.1,60.79-210,61.26-52.16,147-75.4,229.67-98.95,38.42-11,73.86-21,102.9-35,20-9.59,36.49-20.95,46.48-36" transform="translate(0.07 159.42)"/><path id="path7349" class="cls-5" d="M962.43-94.59c-9.62-20.12-22.3-41.92-37-64.41" transform="translate(0.07 159.42)"/><path id="path7351" class="cls-5" d="M753.77,828.06C719,777.41,684.34,726.91,651.52,676c-70.32-109.12-130-216.91-147.94-309.83-16.77-87.36,13.07-162.33,71.3-206C641.44,110.27,732,90,818.88,68.88,859,59.12,895.75,50.09,925.75,37c14.39-6.31,27-13.55,36.68-22.43" transform="translate(0.07 159.42)"/><path id="path7353" class="cls-5" d="M962.43-104.74c-9.54-17.27-21-35.54-33.78-54.26" transform="translate(0.07 159.42)"/><path id="path7355" class="cls-5" d="M744.69,828.06C706.93,774.4,669.52,721,634.29,667.14,562.45,557.32,502,448.51,485.71,356c-15.31-87.38,18.76-160.66,81.12-202.25,71.55-47.66,166.75-65.15,257.5-83.93,41.73-8.61,79.7-16.66,110.59-29a155.11,155.11,0,0,0,27.51-13.94" transform="translate(0.07 159.42)"/><path id="path7357" class="cls-5" d="M962.43-112.16C953.28-127.25,942.84-143,931.5-159" transform="translate(0.07 159.42)"/><path id="path7359" class="cls-5" d="M736.67,828.06C696,771.55,655.9,715.39,618.33,658.77,545.05,548.29,483.83,438.5,469,346.41c-14-87.43,24.05-159,90.27-198.69,76.21-45.58,175.69-60.47,270.14-77,43.17-7.58,82.3-14.67,114-26.32a176.38,176.38,0,0,0,19-8.16" transform="translate(0.07 159.42)"/><path id="path7361" class="cls-5" d="M962.43-117.81C953.76-131.18,944.18-145,934-159" transform="translate(0.07 159.42)"/><path id="path7363" class="cls-5" d="M729.61,828.06c-43.45-59.19-86.17-117.92-126-177.13C529,539.83,467,429.1,453.55,337.41c-12.78-87.52,28.91-157.57,98.72-195.4,80.54-43.6,184-56.1,281.87-70.6,44.53-6.59,84.73-12.77,117.18-23.78q5.74-2,11.11-4.12" transform="translate(0.07 159.42)"/><path id="path7365" class="cls-5" d="M962.43-123.49C954.28-135,945.5-146.8,936.21-159" transform="translate(0.07 159.42)"/><path id="path7367" class="cls-5" d="M723.44,828.06c-46.12-61.69-91.31-122.81-133.21-184.42C514.32,532,451.62,420.37,439.34,329c-5.82-43.62.68-83.79,18.06-114.71,19-33.68,50.18-58.72,88.39-77.65,84.55-41.75,191.68-52.09,292.68-64.62C884.24,66.37,925.38,61,958.55,50.6l3.88-1.25" transform="translate(0.07 159.42)"/><path id="path7369" class="cls-5" d="M962.43-126.74C954.74-137.21,946.56-147.95,938-159" transform="translate(0.07 159.42)"/><path id="path7371" class="cls-5" d="M718.07,828.06c-48.62-64-96.13-127.31-140-191.12C501,524.77,437.59,412.34,426.41,321.33c-5.33-43.58,2.17-83.44,20.65-113.84,20.27-33.25,53-57.59,92.84-75.73C628.09,91.7,738.57,83.39,842.42,72.61c45.66-4.73,86.7-9.27,120-18.56" transform="translate(0.07 159.42)"/><path id="path7373" class="cls-5" d="M962.43-129.34Q951.51-143.8,939.5-159" transform="translate(0.07 159.42)"/><path id="path7375" class="cls-5" d="M713.44,828.06C662.5,762,612.85,696.66,567.18,630.84,489.06,518.21,425,405.05,414.78,314.34c-4.86-43.53,3.5-83.15,23-113.06,21.44-32.87,55.54-56.57,96.84-74,91.44-38.56,204.95-45,311.37-54.2,44-3.75,83.67-7.46,116.45-15.23" transform="translate(0.07 159.42)"/><path id="path7377" class="cls-5" d="M962.43-131.45Q952.05-144.9,940.78-159" transform="translate(0.07 159.42)"/><path id="path7379" class="cls-5" d="M709.47,828.06c-53.05-68-104.64-135-151.93-202.66-79-113-143.66-226.87-153-317.29-4.49-43.51,4.67-82.88,25-112.37,22.48-32.56,57.83-55.62,100.4-72.45C624.27,86.12,740.43,81.21,849.14,73.5c42.53-3,81-6,113.29-12.57" transform="translate(0.07 159.42)"/><path id="path7381" class="cls-5" d="M962.43-133.15Q952.52-145.8,941.85-159" transform="translate(0.07 159.42)"/><path id="path7383" class="cls-5" d="M706.13,828.06c-54.92-69.61-108.23-138.26-157-207.44-79.85-113.39-145-227.79-153.64-318-4.15-43.48,5.7-82.62,26.81-111.76,23.4-32.25,59.78-54.84,103.49-71.1,96.87-36,215.37-39.48,326.06-45.93,41.3-2.38,78.79-4.8,110.53-10.43" transform="translate(0.07 159.42)"/><path id="path7385" class="cls-5" d="M962.43-134.51q-9.52-12-19.7-24.49" transform="translate(0.07 159.42)"/><path id="path7387" class="cls-5" d="M703.38,828.06c-56.54-71-111.33-141-161.3-211.53C461.55,502.85,396,387.94,387.94,298c-3.85-43.45,6.58-82.4,28.32-111.25,24.19-32,61.46-54.13,106.12-69.93,99-35,219.5-37.27,331.87-42.65,40.25-1.94,76.88-3.89,108.18-8.77" transform="translate(0.07 159.42)"/><path id="path7389" class="cls-5" d="M962.43-135.58q-9.21-11.47-19-23.42" transform="translate(0.07 159.42)"/><path id="path7391" class="cls-5" d="M701.17,828.06c-57.88-72.19-113.91-143.27-164.9-214.89-81.09-113.94-147-229.24-154.57-319-3.61-43.44,7.29-82.25,29.57-110.83,24.81-31.78,62.84-53.55,108.28-69C620.33,80.19,742.44,78.88,856.18,74.37c39.41-1.54,75.34-3.17,106.25-7.48" transform="translate(0.07 159.42)"/><path id="path7393" class="cls-5" d="M962.43-136.37q-9-11.1-18.46-22.63" transform="translate(0.07 159.42)"/><path id="path7395" class="cls-5" d="M699.48,828.06C640.54,755,583.54,683,531.73,610.53,450.22,496.4,384,380.77,376.85,291.12c-3.42-43.43,7.83-82.13,30.53-110.5,25.31-31.61,63.9-53.13,110-68.23C619.5,78.92,742.86,78.32,857.68,74.55c38.75-1.3,74.15-2.65,104.75-6.53" transform="translate(0.07 159.42)"/><path id="path7397" class="cls-5" d="M962.43-136.93q-8.79-10.83-18.08-22.07" transform="translate(0.07 159.42)"/><path id="path7399" class="cls-5" d="M698.28,828.06c-59.7-73.76-117.4-146.32-169.79-219.43C446.66,494.37,380.23,378.5,373.38,289c-3.31-43.42,8.26-82,31.22-110.25,25.68-31.48,64.66-52.83,111.17-67.7,103.12-33,227.41-33,343-36.32,38.3-1.07,73.31-2.27,103.67-5.88" transform="translate(0.07 159.42)"/><path id="path7401" class="cls-5" d="M962.43-137.26q-8.68-10.67-17.86-21.74" transform="translate(0.07 159.42)"/><path id="path7403" class="cls-5" d="M697.57,828.06c-60.16-74.15-118.29-147.09-171-220.57C444.53,493.14,378,377.15,371.29,287.66c-3.21-43.41,8.48-82,31.64-110.12,25.88-31.42,65.13-52.61,111.89-67.37C618.56,77.46,743.36,77.76,859.41,74.75c38-1,72.79-2.08,103-5.51" transform="translate(0.07 159.42)"/><g id="g7405"><g id="g7465"><g class="cls-6"><g id="g7463" class="cls-7"><path id="path7413" class="cls-8" d="M0-4.11C41.54-.17,82.49,4.83,122.47,11.39,278.5,37.05,417,86.08,505.69,164.62,593.08,242.17,634.35,349,653.17,458.74c18.69,109,17,215.27,48.89,303.3a215,215,0,0,0,38.74,66" transform="translate(0.07 159.42)"/><path id="path7415" class="cls-8" d="M0-42.2c55.53,5.92,110,13.67,162.52,24.48,150.22,31,280.68,88.57,358,174.07C598.34,242.58,626.84,356.17,637,471.19c10,113.29,2.8,221.38,35,308.66a182.57,182.57,0,0,0,26.91,48.21" transform="translate(0.07 159.42)"/><path id="path7417" class="cls-8" d="M0-81.24c70.11,7.92,138.48,18.67,203.38,34.72C348.3-10.58,470.6,55.6,536.71,147.8c68,94.95,84,215,85.39,335.42,1.37,117.36-11.38,227.31,21,313.79a154.64,154.64,0,0,0,15.91,31" transform="translate(0.07 159.42)"/><path id="path7419" class="cls-8" d="M0-120.37c85.24,9.72,167.79,23.43,244.62,45.61C384.75-34.2,498.75,40.44,554,139.09c57.89,103.6,61.7,229.9,54.23,355.74-7.22,121.25-25.5,233.05,7,318.7a130.58,130.58,0,0,0,6.57,14.53" transform="translate(0.07 159.42)"/><path id="path7421" class="cls-8" d="M3.26-158.37C103-147.3,198.72-130.94,285.82-102.25,421.64-57.41,527.22,25.49,572,130.35c47.68,112.11,39.61,244.47,23.31,375.7-15.49,124.29-39.21,237.36-7.28,322" transform="translate(0.07 159.42)"/><path id="path7423" class="cls-8" d="M229.52-158.37a913.34,913.34,0,0,1,97.09,29.49C458.62-80,555.83,10.81,590.55,121.68c37.53,120.36,17.94,258.65-7.19,395.18C561.22,637.09,534,745.81,557.48,828.06" transform="translate(0.07 159.42)"/><path id="path7425" class="cls-8" d="M357-158.37q4.91,1.91,9.74,3.88C495.34-101.95,584.24-3.5,609.29,113.2c27.41,128.33-3.19,272.37-37.09,414.08C544.45,643.4,514.06,748,529.7,828.06" transform="translate(0.07 159.42)"/><path id="path7427" class="cls-8" d="M446.31-158.37C548.75-99.15,614-3.66,628.05,105c17.5,136-23.83,285.59-66.24,432.33-32.39,112-65.64,212.75-57.14,290.76" transform="translate(0.07 159.42)"/><path id="path7429" class="cls-8" d="M514.43-158.37C594.43-95.26,641-3.88,646.6,97.05c7.84,143.25-43.68,298.28-94.47,449.87-24,71.44-46.62,138-59.52,199-6.16,29.27-9.91,56.91-9.6,82.11" transform="translate(0.07 159.42)"/><path id="path7431" class="cls-8" d="M569.78-158.37c63,65.06,95.9,152.86,95,247.87-1.5,150.17-62.8,310.41-121.67,466.62-27.54,73.11-53.2,140.82-68.29,202.66-5.93,24.43-10.08,47.69-11.43,69.28" transform="translate(0.07 159.42)"/><path id="path7433" class="cls-8" d="M616.23-158.37c49.58,65.9,72.16,150.5,66.19,240.74-10.5,156.71-81,321.93-147.7,482.53-30.94,74.67-59.57,143.46-76.64,206a430.65,430.65,0,0,0-12,57.12" transform="translate(0.07 159.42)"/><path id="path7435" class="cls-8" d="M656-158.37c38.88,66.07,53.38,147.79,43.36,234C680.34,238.54,601,408.49,526.93,573.23c-34.25,76.12-65.49,145.93-84.56,209.19a466,466,0,0,0-11.47,45.64" transform="translate(0.07 159.42)"/><path id="path7437" class="cls-8" d="M690.55-158.37c30.23,65.81,38.33,145,25,227.81C688.44,238.06,600.85,412.49,519.71,581.09c-37.33,77.47-71.06,148.22-92,212.1-3.9,11.95-7.32,23.6-10.11,34.87" transform="translate(0.07 159.42)"/><path id="path7439" class="cls-8" d="M720.67-158.37c23.15,65.31,26.12,142.11,10.2,222.07-34.73,174-130,352.58-217.83,524.79-40.14,78.72-76.25,150.31-98.9,214.75q-4.44,12.66-8.07,24.82" transform="translate(0.07 159.42)"/><path id="path7441" class="cls-8" d="M747.06-158.37C764.43-93.71,763.25-19,745.18,58.45,703.36,237.34,600.85,419.87,506.91,595.38c-42.75,79.88-81.1,152.22-105.3,217.18q-2.92,7.85-5.54,15.5" transform="translate(0.07 159.42)"/><path id="path7443" class="cls-8" d="M774.47-158.37c11.63,63.61,4,135.83-16,212.05C710.06,237.1,601,423.24,501.3,601.76c-45.17,80.91-85.41,154-111.16,219.36q-1.38,3.5-2.68,6.94" transform="translate(0.07 159.42)"/><path id="path7445" class="cls-8" d="M794.5-158.37c7.58,62.92-2.43,133.49-23.91,207.77-54.4,187.52-169.48,376.93-274.36,558.2-47.15,81.49-89.08,154.88-116.14,220.46" transform="translate(0.07 159.42)"/><path id="path7447" class="cls-8" d="M811.89-158.37c4.32,62.23-7.64,131.37-30.33,204C721.83,236.82,601.23,429.17,491.69,612.89c-47.42,79.4-89.58,151-117.87,215.17" transform="translate(0.07 159.42)"/><path id="path7449" class="cls-8" d="M826.88-158.37c1.65,61.58-12,129.47-35.56,200.67C726.75,236.75,601.43,431.74,487.67,617.6c-47.46,77.57-89.81,147.6-119.11,210.46" transform="translate(0.07 159.42)"/><path id="path7451" class="cls-8" d="M839.58-158.37c-.49,61-15.36,127.83-39.73,197.82C731.12,236.74,601.6,434,484.17,621.73c-47.55,75.93-90,144.58-120,206.33" transform="translate(0.07 159.42)"/><path id="path7453" class="cls-8" d="M850.15-158.37c-2.21,60.46-18.09,126.44-43,195.43C734.79,236.74,601.71,435.94,481.2,625.24c-47.43,74.58-89.95,142-120.6,202.82" transform="translate(0.07 159.42)"/><path id="path7455" class="cls-8" d="M858.69-158.37c-3.53,60-20.23,125.3-45.63,193.49-75.22,201.64-211.26,402.42-334.29,593-47.43,73.42-89.9,139.93-121,199.92" transform="translate(0.07 159.42)"/><path id="path7457" class="cls-8" d="M865.27-158.37c-4.51,59.69-21.79,124.42-47.56,192C740.19,236.8,602,438.84,476.88,630.41,429.56,703,387.06,768.69,355.64,828.06" transform="translate(0.07 159.42)"/><path id="path7459" class="cls-8" d="M869.92-158.37C864.73-98.93,847.07-34.58,821,32.56,742,236.83,602,439.73,475.52,632c-47.33,71.89-89.74,137.11-121.38,196" transform="translate(0.07 159.42)"/><path id="path7461" class="cls-8" d="M872.7-158.37C867.1-99.08,849.18-35,823,31.92,742.89,236.84,602,440.28,474.71,633c-47.24,71.52-89.65,136.41-121.43,195" transform="translate(0.07 159.42)"/></g></g></g></g></g></g></g></g><rect class="cls-9" x="68.07" y="347.42" width="841" height="325"/><g class="cls-10"><text class="cls-11" transform="translate(53.07 316.84)">TOP SELECTIONS </text></g><rect class="cls-9" x="35.32" y="235.42" width="291.75" height="7.5"/><rect class="cls-12" x="333.82" y="235.42" width="291.75" height="7.5"/><rect class="cls-13" x="633.07" y="235.42" width="291.75" height="7.5"/><rect class="cls-14" x="72.52" y="351.88" width="818.4" height="304.2"/><rect class="cls-14" x="72.52" y="351.88" width="269.03" height="77.43"/><rect class="cls-14" x="341.56" y="351.88" width="267.65" height="77.43"/><rect class="cls-14" x="609.21" y="351.88" width="281.71" height="77.43"/><rect class="cls-14" x="72.52" y="429.31" width="269.03" height="75.59"/><rect class="cls-14" x="341.56" y="429.31" width="267.65" height="75.59"/><rect class="cls-14" x="609.21" y="429.31" width="281.71" height="75.59"/><rect class="cls-15" x="72.52" y="504.9" width="269.03" height="75.59"/><rect class="cls-15" x="341.56" y="504.9" width="267.65" height="75.59"/><rect class="cls-15" x="609.21" y="504.9" width="281.71" height="75.59"/><rect class="cls-14" x="72.52" y="580.49" width="269.03" height="75.59"/><rect class="cls-14" x="341.56" y="580.49" width="267.65" height="75.59"/><rect class="cls-14" x="609.21" y="580.49" width="281.71" height="75.59"/><line class="cls-16" x1="72.52" y1="429.31" x2="72.52" y2="656.08"/><g class="cls-10"><text class="cls-17" transform="translate(141.62 409.59)">Companies</text></g><g class="cls-10"><text class="cls-17" transform="translate(402.62 409.59)">Average CTC</text></g><g class="cls-10"><text class="cls-17" transform="translate(684.7 409.59)">Percentage</text></g><g class="cls-10"><text class="cls-18" transform="translate(185.17 457.67)">CSE</text></g><g class="cls-10"><text class="cls-18" transform="translate(442.39 457.67)">13.59</text></g><g class="cls-10"><text class="cls-18" transform="translate(725.22 457.67)">90%</text></g><g class="cls-10"><text class="cls-18" transform="translate(195.67 533.37)">IT</text></g><g class="cls-10"><text class="cls-19" transform="translate(443.15 534.12)">15.56</text></g><g class="cls-10"><text class="cls-19" transform="translate(715.47 534.12)">70.5%</text></g><g class="cls-10"><text class="cls-20" transform="translate(184.42 609.05)">ECE</text></g><g class="cls-10"><text class="cls-21" transform="translate(443.15 609.8)">10.05</text></g><g class="cls-10"><text class="cls-21" transform="translate(725.22 609.8)">71%</text></g></g></svg>