<svg id="Layer_1" data-name="Layer 1" xmlns="http://www.w3.org/2000/svg" xmlns:xlink="http://www.w3.org/1999/xlink" viewBox="0 0 969.67 966.53"><defs><style>.cls-1,.cls-17,.cls-6,.cls-9{fill:none;}.cls-2{clip-path:url(#clip-path);}.cls-3{clip-path:url(#clip-path-2);}.cls-4{clip-path:url(#clip-path-3);}.cls-5{fill:url(#linear-gradient);}.cls-6{stroke:#bdbcbc;stroke-width:1.33px;}.cls-6,.cls-9{stroke-miterlimit:5.33;}.cls-7{clip-path:url(#clip-path-4);}.cls-8{opacity:0.2;}.cls-9{stroke:#231f20;stroke-width:1.16px;}.cls-10{fill:#465359;}.cls-11{clip-path:url(#clip-path-5);}.cls-12{font-size:36.63px;fill:#404040;}.cls-12,.cls-21,.cls-22{font-family:GillSansMT, Gill Sans MT;}.cls-13{fill:#ed8428;}.cls-14{fill:#969fa7;}.cls-15{fill:#f2f2f2;}.cls-16{fill:#d9d9d9;}.cls-17{stroke:#000;stroke-linejoin:round;}.cls-18{clip-path:url(#clip-path-6);}.cls-19,.cls-20,.cls-22{font-size:20.6px;}.cls-19{font-family:Calibri-Bold, Calibri;font-weight:700;}.cls-20,.cls-23{font-family:Calibri;}.cls-21,.cls-23{font-size:20.63px;}</style><clipPath id="clip-path" transform="translate(3.34 1.04)"><rect class="cls-1" width="960.07" height="540"/></clipPath><clipPath id="clip-path-2" transform="translate(3.34 1.04)"><rect class="cls-1" width="966.5" height="540"/></clipPath><clipPath id="clip-path-3" transform="translate(3.34 1.04)"><rect class="cls-1" x="-3.28" y="-0.61" width="967.56" height="965.67"/></clipPath><linearGradient id="linear-gradient" x1="-479.4" y1="809.56" x2="-478.19" y2="809.56" gradientTransform="matrix(800, 0, 0, -800, 383519.98, 648129.96)" gradientUnits="userSpaceOnUse"><stop offset="0" stop-color="#fff"/><stop offset="1" stop-color="#e0e0e0"/></linearGradient><clipPath id="clip-path-4" transform="translate(3.34 1.04)"><rect class="cls-1" x="-3.36" y="-0.7" width="879.43" height="966.22"/></clipPath><clipPath id="clip-path-5" transform="translate(3.34 1.04)"><rect class="cls-1" x="-10.91" y="-8.72" width="977.41" height="548.72"/></clipPath><clipPath id="clip-path-6" transform="translate(3.34 1.04)"><rect class="cls-1" x="-16" y="-34.13" width="977.41" height="548.72"/></clipPath></defs><g class="cls-2"><g class="cls-3"><g id="g7295"><g id="g7297"><g class="cls-4"><g id="g7299"><g id="g7305"><g id="g7307"><g id="g7313"><g id="g7315"><path id="path7323" class="cls-5" d="M964.28,965.06H-3.28V-.61H964.28Z" transform="translate(3.34 1.04)"/></g></g></g></g><path id="path7325" class="cls-6" d="M958.16,965.06c-64.64-107-142.72-217.2-199.69-328.6-46.42-90.84-77.92-180.94-80.68-255.65-2.66-73.67,22.05-133.8,55.85-183.2,33.59-49.1,73.46-86.53,94.56-135,7.91-18.2,11.62-39.69,11-63.26" transform="translate(3.34 1.04)"/><path id="path7327" class="cls-6" d="M931.56,965.06c-65.55-111-144-224.49-198.2-339-42.38-89.73-67.84-178.73-63.93-250,4-71.81,35.73-127.68,74.59-174.5,38.3-46.07,80.8-81.31,101.53-129.61,8.62-20.14,11.17-45,7.94-72.55" transform="translate(3.34 1.04)"/><path id="path7329" class="cls-6" d="M906.33,965.06c-67.49-115.52-147-232.34-198.25-350-38.65-88.75-58-176.56-47.62-244.38,10.73-69.8,49.34-121.49,93.35-165.63C796.69,162,841.89,129,862.26,80.88c9.22-21.83,10.17-50,3.84-81.49" transform="translate(3.34 1.04)"/><path id="path7331" class="cls-6" d="M882.66,965.06C812.26,844.7,731.3,724.38,682.87,603.66c-35.22-87.9-48.49-174.44-31.82-238.9,17.54-67.64,62.85-115.19,112-156.67,47.39-40,95.26-70.72,115.26-118.62C888,66.16,887,34.62,877.2-.61" transform="translate(3.34 1.04)"/><path id="path7333" class="cls-6" d="M860.73,965.06C786.49,839.57,703.51,715.62,658,592c-32.1-87.2-39.29-172.31-16.6-233.56,24.35-65.37,76.16-108.89,130.49-147.7,51.75-36.92,102.29-65.4,121.92-113.08,10.1-24.61,6.69-59.41-6.83-98.31" transform="translate(3.34 1.04)"/><path id="path7335" class="cls-6" d="M840.6,965.06c-78.88-130.8-164.4-258.52-207.11-384.75-29.25-86.65-30.51-170.25-2-228.39,31-63,89.16-102.67,148.62-138.77,56-34,109.12-60.17,128.39-107.58,10.42-25.75,4.39-63.75-13-106.18" transform="translate(3.34 1.04)"/><path id="path7337" class="cls-6" d="M822.28,965.06C738.1,828.86,649.57,697.23,609.66,568.58c-26.67-86.22-22.15-168.21,12-223.4,37.6-60.62,101.79-96.57,166.3-130,60-31.06,115.73-55,134.65-102.15C933.29,86.32,924.38,45.2,903-.61" transform="translate(3.34 1.04)"/><path id="path7339" class="cls-6" d="M805.73,965.06c-90-141.61-182-277.26-219.14-408.11-24.34-85.9-14.2-166.2,25.31-218.61C655.88,280.15,726,247.8,795.4,217c63.85-28.27,122.08-50,140.64-96.84,10.87-27.63-1.1-71.78-26.52-120.81" transform="translate(3.34 1.04)"/><path id="path7341" class="cls-6" d="M790.87,965.06c-96.14-147-191.94-286.69-226.5-419.54-22.2-85.68-6.71-164.26,38-214,50.13-55.76,125.88-84.74,200.1-112.85,35-13.23,67.69-25.4,94.87-40.66,24-13.53,43-29.33,51.49-51,11-28.39-4.16-75.48-33.54-127.56" transform="translate(3.34 1.04)"/><path id="path7343" class="cls-6" d="M777.56,965.06c-29-43.24-58.19-86.5-86.21-130.12C623.7,729.61,564.93,626.22,543.1,534.36,522.84,448.82,543.46,372,593,324.71c56-53.38,137.21-79.12,216-104.68,36.89-12,71.11-23,99.36-37.38,24.73-12.66,44.2-27.84,52.43-49.32,11.14-29.08-7.32-79-40.58-133.94" transform="translate(3.34 1.04)"/><path id="path7345" class="cls-6" d="M965.7,77.69c-8.76-23.55-23.13-50.32-41.09-78.3" transform="translate(3.34 1.04)"/><path id="path7347" class="cls-6" d="M766,965.06c-32-46.47-64.05-92.87-94.61-139.66-69.23-106-128.62-210.47-148.47-301.84-18.49-85.48,7-160.54,61.2-205.5,61.67-51,148-73.76,231.23-96.8C854,210.5,889.67,200.67,918.91,187c20.11-9.38,36.74-20.49,46.79-35.25" transform="translate(3.34 1.04)"/><path id="path7349" class="cls-6" d="M965.7,62.4c-9.68-19.68-22.45-41-37.29-63" transform="translate(3.34 1.04)"/><path id="path7351" class="cls-6" d="M755.63,965.06c-35-49.55-69.91-99-103-148.77C581.87,709.53,521.77,604.08,503.73,513.16c-16.89-85.46,13.16-158.8,71.78-201.57,67-48.76,158.24-68.6,245.67-89.26,40.4-9.55,77.39-18.39,107.6-31.24,14.48-6.17,27.16-13.25,36.92-21.94" transform="translate(3.34 1.04)"/><path id="path7353" class="cls-6" d="M965.7,52.47c-9.6-16.9-21.14-34.77-34-53.08" transform="translate(3.34 1.04)"/><path id="path7355" class="cls-6" d="M746.48,965.06c-38-52.5-75.68-104.75-111.16-157.44C563,700.18,502.14,593.74,485.74,503.24c-15.42-85.48,18.88-157.17,81.67-197.86,72-46.62,167.88-63.73,259.26-82.11,42-8.43,80.23-16.3,111.33-28.41a158.78,158.78,0,0,0,27.7-13.64" transform="translate(3.34 1.04)"/><path id="path7357" class="cls-6" d="M965.7,45.21C956.49,30.45,946,15.07,934.56-.61" transform="translate(3.34 1.04)"/><path id="path7359" class="cls-6" d="M738.41,965.06c-40.93-55.29-81.32-110.23-119.15-165.62-73.78-108.09-135.41-215.5-150.33-305.59-14.09-85.54,24.22-155.6,90.88-194.39,76.74-44.59,176.9-59.16,272-75.37,43.47-7.41,82.87-14.35,114.8-25.75a182,182,0,0,0,19.11-8" transform="translate(3.34 1.04)"/><path id="path7361" class="cls-6" d="M965.7,39.68C957,26.6,947.32,13.1,937-.61" transform="translate(3.34 1.04)"/><path id="path7363" class="cls-6" d="M731.29,965.06c-43.74-57.91-86.75-115.37-126.81-173.3C529.32,683.08,466.93,574.75,453.36,485c-12.87-85.62,29.1-154.16,99.39-191.17C633.84,251.22,738,239,836.54,224.8c44.83-6.45,85.31-12.49,118-23.27q5.79-1.89,11.18-4" transform="translate(3.34 1.04)"/><path id="path7365" class="cls-6" d="M965.7,34.13c-8.21-11.24-17.05-22.81-26.4-34.74" transform="translate(3.34 1.04)"/><path id="path7367" class="cls-6" d="M725.09,965.06C678.65,904.71,633.16,844.91,591,784.64c-76.43-109.25-139.56-218.43-151.92-307.8-5.86-42.67.68-82,18.18-112.22,19.08-32.95,50.53-57.45,89-76,85.12-40.85,193-51,294.67-63.22,46.08-5.56,87.5-10.86,120.9-21q2-.6,3.9-1.23" transform="translate(3.34 1.04)"/><path id="path7369" class="cls-6" d="M965.7,31Q954.09,15.59,941.09-.61" transform="translate(3.34 1.04)"/><path id="path7371" class="cls-6" d="M719.68,965.06c-48.95-62.6-96.79-124.55-140.95-187C501.13,668.34,437.29,558.34,426,469.31c-5.37-42.63,2.19-81.63,20.8-111.37,20.41-32.53,53.37-56.34,93.47-74.09,88.79-39.19,200-47.33,304.58-57.87,46-4.63,87.28-9.08,120.82-18.16" transform="translate(3.34 1.04)"/><path id="path7373" class="cls-6" d="M965.7,28.4q-11-14.14-23.09-29" transform="translate(3.34 1.04)"/><path id="path7375" class="cls-6" d="M715,965.06c-51.29-64.65-101.28-128.55-147.26-192.94-78.65-110.2-143.14-220.91-153.43-309.65-4.9-42.59,3.51-81.35,23.14-110.61,21.59-32.16,55.92-55.35,97.5-72.39,92.06-37.72,206.35-44,313.49-53,44.3-3.67,84.24-7.3,117.24-14.9" transform="translate(3.34 1.04)"/><path id="path7377" class="cls-6" d="M965.7,26.34Q955.26,13.17,943.91-.61" transform="translate(3.34 1.04)"/><path id="path7379" class="cls-6" d="M711,965.06c-53.41-66.49-105.35-132.13-153-198.27C478.48,656.2,413.42,544.84,404,456.37c-4.51-42.56,4.71-81.08,25.2-109.93,22.64-31.85,58.23-54.41,101.09-70.88,95-36.37,212-41.17,321.39-48.71,42.82-3,81.59-5.88,114.06-12.3" transform="translate(3.34 1.04)"/><path id="path7381" class="cls-6" d="M965.7,24.67Q955.72,12.31,945-.61" transform="translate(3.34 1.04)"/><path id="path7383" class="cls-6" d="M707.66,965.06c-55.29-68.1-109-135.27-158-202.94C469.24,651.18,403.67,539.26,395,451c-4.17-42.53,5.74-80.83,27-109.34,23.57-31.54,60.19-53.65,104.2-69.55C623.67,236.91,743,233.5,854.42,227.19c41.58-2.32,79.32-4.7,111.28-10.2" transform="translate(3.34 1.04)"/><path id="path7385" class="cls-6" d="M965.7,23.34Q956.11,11.61,945.87-.61" transform="translate(3.34 1.04)"/><path id="path7387" class="cls-6" d="M704.89,965.06C648,895.58,592.8,827.11,542.49,758.12,461.41,646.89,395.4,534.47,387.3,446.46c-3.87-42.52,6.63-80.62,28.51-108.84,24.36-31.28,61.88-53,106.84-68.42,99.7-34.21,221-36.46,334.13-41.73,40.53-1.9,77.41-3.8,108.92-8.57" transform="translate(3.34 1.04)"/><path id="path7389" class="cls-6" d="M965.7,22.3Q956.43,11.07,946.58-.61" transform="translate(3.34 1.04)"/><path id="path7391" class="cls-6" d="M702.66,965.06c-58.27-70.62-114.69-140.17-166-210.24C455,643.35,388.64,530.55,381,442.69c-3.64-42.49,7.34-80.46,29.77-108.42,25-31.09,63.26-52.39,109-67.48,101.46-33.4,224.4-34.68,338.92-39.09,39.68-1.51,75.86-3.1,107-7.32" transform="translate(3.34 1.04)"/><path id="path7393" class="cls-6" d="M965.7,21.52q-9-10.84-18.59-22.13" transform="translate(3.34 1.04)"/><path id="path7395" class="cls-6" d="M701,965.06c-59.34-71.52-116.73-141.91-168.89-212.82C450,640.58,383.33,527.46,376.14,439.75c-3.45-42.48,7.88-80.34,30.74-108.1,25.48-30.93,64.33-52,110.7-66.76,102.86-32.74,227.06-33.32,342.66-37,39-1.28,74.66-2.6,105.46-6.4" transform="translate(3.34 1.04)"/><path id="path7397" class="cls-6" d="M965.7,21Q956.85,10.39,947.49-.61" transform="translate(3.34 1.04)"/><path id="path7399" class="cls-6" d="M699.76,965.06c-60.11-72.16-118.21-143.16-171-214.68C446.42,638.6,379.54,525.24,372.64,437.63c-3.33-42.48,8.31-80.21,31.44-107.86C429.93,299,469.17,278.08,516,263.53,619.82,231.22,745,231.24,861.33,228c38.56-1.05,73.81-2.22,104.37-5.75" transform="translate(3.34 1.04)"/><path id="path7401" class="cls-6" d="M965.7,20.65Q957,10.21,947.72-.61" transform="translate(3.34 1.04)"/><path id="path7403" class="cls-6" d="M699,965.06c-60.57-72.55-119.1-143.91-172.18-215.8C444.28,637.4,377.29,523.92,370.54,436.36c-3.24-42.46,8.53-80.17,31.85-107.72,26.06-30.74,65.57-51.47,112.66-65.92C619.49,230.72,745.14,231,862,228.07c38.27-1,73.29-2,103.72-5.39" transform="translate(3.34 1.04)"/><g id="g7405"><g id="g7465"><g class="cls-7"><g id="g7463" class="cls-8"><path id="path7413" class="cls-9" d="M-3.28,150.92c41.83,3.86,83.05,8.75,123.3,15.16C277.11,191.19,416.54,239.15,505.85,316c88,75.87,129.54,180.43,148.49,287.75,18.81,106.66,17.1,210.6,49.22,296.73a209.32,209.32,0,0,0,39,64.59" transform="translate(3.34 1.04)"/><path id="path7415" class="cls-9" d="M-3.28,113.66C52.63,119.44,107.47,127,160.34,137.6c151.25,30.3,282.6,86.65,360.42,170.31,78.37,84.35,107.07,195.48,117.34,308,10,110.84,2.82,216.59,35.21,302a177.16,177.16,0,0,0,27.09,47.17" transform="translate(3.34 1.04)"/><path id="path7417" class="cls-9" d="M-3.28,75.47c70.59,7.74,139.43,18.25,204.77,34,145.9,35.16,269,99.9,335.59,190.11,68.44,92.89,84.61,210.34,86,328.15,1.38,114.82-11.46,222.38,21.11,307a149.48,149.48,0,0,0,16,30.37" transform="translate(3.34 1.04)"/><path id="path7419" class="cls-9" d="M-3.28,37.18C82.54,46.69,165.65,60.1,243,81.81,384.09,121.48,498.87,194.5,554.48,291c58.29,101.35,62.12,224.92,54.6,348-7.27,118.62-25.67,228,7.07,311.8a129.74,129.74,0,0,0,6.62,14.21" transform="translate(3.34 1.04)"/><path id="path7421" class="cls-9" d="M0,0C100.41,10.84,196.8,26.84,284.48,54.9c136.75,43.87,243,125,288.16,227.56,48,109.68,39.89,239.18,23.47,367.57-15.59,121.6-39.47,232.21-7.33,315" transform="translate(3.34 1.04)"/><path id="path7423" class="cls-9" d="M227.8,0a941.85,941.85,0,0,1,97.75,28.85C458.46,76.64,556.34,165.51,591.29,274c37.79,117.75,18.07,253-7.24,386.61-22.29,117.62-49.68,224-26,304.46" transform="translate(3.34 1.04)"/><path id="path7425" class="cls-9" d="M356.11,0q4.93,1.88,9.81,3.8c129.52,51.4,219,147.72,244.24,261.89,27.59,125.54-3.21,266.47-37.34,405.1-28,113.61-58.54,216-42.8,294.27" transform="translate(3.34 1.04)"/><path id="path7427" class="cls-9" d="M446.07,0c103.13,57.94,168.79,151.36,183,257.63,17.61,133-24,279.4-66.69,423-32.62,109.6-66.09,208.14-57.53,284.46" transform="translate(3.34 1.04)"/><path id="path7429" class="cls-9" d="M514.65,0C595.2,61.74,642.1,151.15,647.73,249.89c7.88,140.14-44,291.82-95.12,440.12-24.15,69.89-46.93,135-59.92,194.72-6.21,28.63-10,55.68-9.67,80.33" transform="translate(3.34 1.04)"/><path id="path7431" class="cls-9" d="M570.38,0C633.76,63.65,666.93,149.55,666,242.5,664.52,389.42,602.8,546.19,543.53,699,515.8,770.54,490,836.78,474.77,897.28c-6,23.9-10.14,46.66-11.5,67.78" transform="translate(3.34 1.04)"/><path id="path7433" class="cls-9" d="M617.15,0c49.91,64.48,72.65,147.24,66.64,235.52-10.58,153.32-81.54,315-148.71,472.08-31.15,73-60,140.35-77.17,201.58a412.28,412.28,0,0,0-12.05,55.88" transform="translate(3.34 1.04)"/><path id="path7435" class="cls-9" d="M657.23,0C696.37,64.64,711,144.59,700.88,229c-19.19,159.34-99,325.61-173.65,486.78-34.48,74.47-65.93,142.77-85.12,204.66a440.51,440.51,0,0,0-11.55,44.65" transform="translate(3.34 1.04)"/><path id="path7437" class="cls-9" d="M692,0c30.44,64.39,38.6,141.81,25.21,222.88C689.85,387.84,601.66,558.49,520,723.44c-37.58,75.79-71.54,145-92.59,207.51C423.44,942.63,420,954,417.2,965.06" transform="translate(3.34 1.04)"/><path id="path7439" class="cls-9" d="M722.29,0c23.32,63.89,26.3,139,10.28,217.26-35,170.2-130.94,345-219.32,513.42-40.41,77-76.76,147.05-99.57,210.1q-4.47,12.38-8.12,24.28" transform="translate(3.34 1.04)"/><path id="path7441" class="cls-9" d="M748.87,0c17.48,63.26,16.3,136.36-1.89,212.12-42.12,175-145.32,353.6-239.9,525.3-43,78.14-81.65,148.93-106,212.47q-3,7.68-5.58,15.17" transform="translate(3.34 1.04)"/><path id="path7443" class="cls-9" d="M776.46,0c11.72,62.23,4,132.88-16.13,207.46C711.61,386.9,601.82,569,501.44,743.66c-45.48,79.16-86,150.63-111.93,214.61q-1.38,3.42-2.69,6.79" transform="translate(3.34 1.04)"/><path id="path7445" class="cls-9" d="M796.62,0c7.64,61.56-2.44,130.6-24.07,203.27C717.78,386.73,601.92,572,496.33,749.38,448.86,829.1,406.64,900.9,379.39,965.06" transform="translate(3.34 1.04)"/><path id="path7447" class="cls-9" d="M814.14,0c4.35,60.89-7.7,128.53-30.54,199.56-60.14,187.07-181.55,375.25-291.85,555C444,832.23,401.57,902.3,373.09,965.06" transform="translate(3.34 1.04)"/><path id="path7449" class="cls-9" d="M829.23,0c1.66,60.25-12.06,126.67-35.8,196.32-65,190.24-191.18,381-305.72,562.84-47.78,75.89-90.42,144.4-119.92,205.9" transform="translate(3.34 1.04)"/><path id="path7451" class="cls-9" d="M842,0c-.49,59.67-15.46,125.07-40,193.54-69.2,193-199.6,386-317.83,569.66-47.87,74.28-90.59,141.45-120.82,201.86" transform="translate(3.34 1.04)"/><path id="path7453" class="cls-9" d="M852.65,0c-2.21,59.16-18.2,123.7-43.33,191.2C736.51,386.55,602.53,581.43,481.2,766.64c-47.76,73-90.57,139-121.42,198.42" transform="translate(3.34 1.04)"/><path id="path7455" class="cls-9" d="M861.25,0c-3.55,58.73-20.36,122.58-45.94,189.3C739.59,386.58,602.62,583,478.75,769.47,431,841.3,388.23,906.37,356.93,965.06" transform="translate(3.34 1.04)"/><path id="path7457" class="cls-9" d="M867.88,0C863.34,58.4,846,121.72,820,187.84,742,386.61,602.76,584.27,476.84,771.69c-47.63,71-90.42,135.29-122.06,193.37" transform="translate(3.34 1.04)"/><path id="path7459" class="cls-9" d="M872.56,0c-5.22,58.16-23,121.11-49.21,186.79C743.72,386.64,602.78,585.14,475.48,773.28c-47.65,70.33-90.36,134.13-122.21,191.78" transform="translate(3.34 1.04)"/><path id="path7461" class="cls-9" d="M875.37,0c-5.64,58-23.69,120.73-50,186.17-80.69,200.48-222.53,399.51-350.7,588.06-47.56,70-90.25,133.46-122.26,190.83" transform="translate(3.34 1.04)"/></g></g></g></g></g></g></g></g><rect class="cls-10" x="71.35" y="189.19" width="820.1" height="326.45"/><g class="cls-11"><text class="cls-12" transform="translate(68.79 152.28)">TOP SELECTIONS </text></g><rect class="cls-10" x="28.32" y="56.34" width="297.04" height="7.62"/><rect class="cls-13" x="332.24" y="56.34" width="297.04" height="7.62"/><rect class="cls-14" x="636.92" y="56.34" width="297.04" height="7.62"/><rect class="cls-15" x="71.35" y="190.2" width="809.03" height="314.27"/><rect class="cls-15" x="71.35" y="189.19" width="265.96" height="41.06"/><rect class="cls-15" x="337.31" y="190.2" width="264.59" height="41.06"/><rect class="cls-15" x="601.89" y="190.2" width="278.49" height="41.06"/><rect class="cls-15" x="71.35" y="231.26" width="265.96" height="39.03"/><rect class="cls-15" x="337.31" y="231.26" width="264.59" height="39.03"/><rect class="cls-15" x="601.89" y="231.26" width="278.49" height="39.03"/><rect class="cls-16" x="71.35" y="270.29" width="265.96" height="39.03"/><rect class="cls-16" x="337.31" y="270.29" width="264.59" height="39.03"/><rect class="cls-16" x="601.89" y="270.29" width="278.49" height="39.03"/><rect class="cls-15" x="71.35" y="309.32" width="265.96" height="39.03"/><rect class="cls-15" x="337.31" y="309.32" width="264.59" height="39.03"/><rect class="cls-15" x="601.89" y="309.32" width="278.49" height="39.03"/><rect class="cls-16" x="71.35" y="348.35" width="265.96" height="39.03"/><rect class="cls-16" x="337.31" y="348.35" width="264.59" height="39.03"/><rect class="cls-16" x="601.89" y="348.35" width="278.49" height="39.03"/><rect class="cls-15" x="71.35" y="387.38" width="265.96" height="39.03"/><rect class="cls-15" x="337.31" y="387.38" width="264.59" height="39.03"/><rect class="cls-15" x="601.89" y="387.38" width="278.49" height="39.03"/><rect class="cls-16" x="71.35" y="426.41" width="265.96" height="39.03"/><rect class="cls-16" x="337.31" y="426.41" width="264.59" height="39.03"/><rect class="cls-16" x="601.89" y="426.41" width="278.49" height="39.03"/><rect class="cls-15" x="71.35" y="465.44" width="265.96" height="39.03"/><rect class="cls-15" x="337.31" y="465.44" width="264.59" height="39.03"/><rect class="cls-15" x="599.86" y="464.42" width="278.49" height="39.03"/><line class="cls-17" x1="71.35" y1="231.26" x2="71.35" y2="504.47"/><g class="cls-18"><text class="cls-19" transform="translate(155.44 213.33)">Companies</text></g><g class="cls-18"><text class="cls-19" transform="translate(431.56 213.33)">Selected</text></g><g class="cls-18"><text class="cls-19" transform="translate(691.01 213.33)">CTC (in LPA)</text></g><g class="cls-18"><text class="cls-20" transform="translate(163.07 252.44)">Microsoft</text></g><g class="cls-18"><text class="cls-20" transform="translate(405.57 252.44)">1 (stll waiting)</text></g><g class="cls-18"><text class="cls-20" transform="translate(727.68 252.44)">46</text></g><g class="cls-18"><text class="cls-20" transform="translate(173.8 291.5)">Tekion</text></g><g class="cls-18"><text class="cls-21" transform="translate(457.52 292.27)">12</text></g><g class="cls-18"><text class="cls-21" transform="translate(729.21 292.27)">27</text></g><g class="cls-18"><text class="cls-20" transform="translate(165.37 330.6)">Samsung</text></g><g class="cls-18"><text class="cls-22" transform="translate(457.52 331.36)">21</text></g><g class="cls-18"><text class="cls-22" transform="translate(716.23 331.36)">14.75</text></g><g class="cls-18"><text class="cls-23" transform="translate(178.38 369.67)">Airtel</text></g><g class="cls-18"><text class="cls-21" transform="translate(462.89 370.43)">8</text></g><g class="cls-18"><text class="cls-21" transform="translate(721.58 370.43)">14.5</text></g><g class="cls-18"><text class="cls-20" transform="translate(183.72 408.77)">GEP</text></g><g class="cls-18"><text class="cls-22" transform="translate(457.52 409.52)">10</text></g><g class="cls-18"><text class="cls-22" transform="translate(729.21 409.52)">16</text></g><g class="cls-18"><text class="cls-23" transform="translate(155.44 447.84)">Qualcomm</text></g><g class="cls-18"><text class="cls-21" transform="translate(462.89 448.6)">3</text></g><g class="cls-18"><text class="cls-21" transform="translate(729.21 448.6)">25</text></g><g class="cls-18"><text class="cls-20" transform="translate(163.07 486.93)">Synopsys</text></g><g class="cls-18"><text class="cls-20" transform="translate(405.57 486.93)">1 (stll waiting)</text></g><g class="cls-18"><text class="cls-22" transform="translate(729.21 487.7)">24</text></g></g></g></svg>