<svg id="Layer_1" data-name="Layer 1" xmlns="http://www.w3.org/2000/svg" viewBox="0 0 196.11 41.43"><defs><style>.cls-1{fill:#e82629;}.cls-2{fill:#f8a51e;}.cls-3{font-size:5.6px;fill:#fcfdff;font-family:Poppins-Regular, Poppins;}</style></defs><path class="cls-1" d="M778.17,639.61l-3,8.95a12.59,12.59,0,0,0,1,6.28c2.73,6.19,9.68,7.44,10.37,7.56a13.87,13.87,0,0,0,14.27-6.6l-6.42-4a6.78,6.78,0,0,1-2.25,2.07,6.48,6.48,0,0,1-4.56.67,6.71,6.71,0,0,1-4.46-3.95,6.56,6.56,0,0,1,.57-5.6,6.32,6.32,0,0,1,4.85-2.89,6.13,6.13,0,0,1,5.49,3.1l6.92-4a13.24,13.24,0,0,0-2.75-3.42,13.5,13.5,0,0,0-6.63-3.14,13.89,13.89,0,0,0-10.34,2A12.55,12.55,0,0,0,778.17,639.61Z" transform="translate(-775.11 -632.09)"/><path class="cls-2" d="M820,634.44c-.74,2.37-1.49,4.73-2.24,7.1a7,7,0,0,0-3.6.57,7.29,7.29,0,0,0-3.71,4.17,7.42,7.42,0,0,0,2.57,7.78l-3.78,11-.47-1.29c-.16-.44-.48-1.28-1.14-3a23.62,23.62,0,0,0-1.07-2.53,10.1,10.1,0,0,0-1.78-2c-1.21-1.27-1.45-2.8-1.82-5.17a14.7,14.7,0,0,1,.14-6.67,14.33,14.33,0,0,1,3.39-5.84,14.85,14.85,0,0,1,6.86-4.07Z" transform="translate(-775.11 -632.09)"/><path class="cls-2" d="M820.23,642.63a6.58,6.58,0,0,1,1.65,1.66,7.29,7.29,0,0,1,1.18,5.13,6.52,6.52,0,0,1-2.51,4.65,6.41,6.41,0,0,1-4.82,1l-2.46,7.43a18.81,18.81,0,0,0,4.07,0,15.08,15.08,0,0,0,8.77-3.37,13.78,13.78,0,0,0,4.28-8c.82-4.47-.38-9.48-2.51-11.29a6.74,6.74,0,0,1-1.18-1.17,10.59,10.59,0,0,1-1.61-3.88c-.18-.66-.39-1.56-.58-2.65Q822.37,637.36,820.23,642.63Z" transform="translate(-775.11 -632.09)"/><path class="cls-1" d="M836.08,634.55c-.91,2.16-1.81,4.33-2.71,6.49L833.22,662l6.56.11,1.93-4.74-.07-12.63a4.4,4.4,0,0,1,1.43-2.06,4,4,0,0,1,1.92-.9,4.38,4.38,0,0,1,3.39,1,4.55,4.55,0,0,1,1.17,1.53q0,8.79,0,17.58l6.06.11,1.86-4.32.07-12.69a4.26,4.26,0,0,1,2-2.6,4.31,4.31,0,0,1,3.35-.29,4.53,4.53,0,0,1,2.5,2V661.9l6.1.14c.63-1.6,1.25-3.21,1.88-4.81V642.61a10.26,10.26,0,0,0-2.46-5,10.49,10.49,0,0,0-6.16-3.24,9.26,9.26,0,0,0-6,.71,8.63,8.63,0,0,0-3.07,2.68,7.34,7.34,0,0,0-2.38-2.39,8.42,8.42,0,0,0-4.89-1.07,8.08,8.08,0,0,0-4.74,1.17A6.85,6.85,0,0,0,842,637.3l-.57.07c0-1,0-2-.07-2.93Z" transform="translate(-775.11 -632.09)"/><path class="cls-1" d="M874.33,634.47l8.85.13,4.68,14.58.53,5.34,6.06-19.93,8.84,0L893.45,662h-9.38Z" transform="translate(-775.11 -632.09)"/><path class="cls-1" d="M907,634.47l-1.89,4.73L905.08,662l6.55,0,1.41-3.28q0-12.13,0-24.28Z" transform="translate(-775.11 -632.09)"/><path class="cls-1" d="M916,634.5l8.86.14,4.68,14.57.52,5.34,6.06-19.93,8.85,0L935.16,662h-9.37Z" transform="translate(-775.11 -632.09)"/><path class="cls-1" d="M962.9,635.06c0,.83.05,1.67.08,2.51a10.76,10.76,0,0,0-2.43-1.84,11.21,11.21,0,0,0-4.36-1.29,10.57,10.57,0,0,0-5.54.65,9.8,9.8,0,0,0-3.36,2.39l-4.63,12.69a13.15,13.15,0,0,0,2.71,7.7,11.24,11.24,0,0,0,17.4,1.36l.21,2.28,7.7,0,.06-26.48Zm.11,13.85a6.56,6.56,0,0,1-1.93,4.36,6.4,6.4,0,0,1-6.52,1.44,6.56,6.56,0,0,1-3.75-3.63,6.89,6.89,0,0,1,.46-6.18,5.73,5.73,0,0,1,2.56-2.41,5.56,5.56,0,0,1,2.63-.45,5.67,5.67,0,0,1,2.8.4A6.72,6.72,0,0,1,963,648.91Z" transform="translate(-775.11 -632.09)"/><text class="cls-3" transform="translate(109.35 38.23)">A TECH MAHINDRA COMPANY</text></svg>