<svg id="Layer_1" data-name="Layer 1" xmlns="http://www.w3.org/2000/svg" viewBox="0 0 128.35 36.87"><defs><style>.cls-1{fill:#f16537;}.cls-2{fill:#1c447f;}.cls-3{fill:none;stroke:#1c447f;stroke-width:1.45px;}</style></defs><path class="cls-1" d="M829.65,462.09a.57.57,0,0,1-.41.17h-1.35a.3.3,0,0,1-.29-.3V435.39a.09.09,0,0,1,.08-.09h15a6.75,6.75,0,0,1,2.5,13,.08.08,0,0,0,0,.16h5.07a.29.29,0,0,0,.22-.09,10,10,0,0,0,2.71-6.91,9.78,9.78,0,0,0-9.71-9.86H823.38a.29.29,0,0,0-.29.29v19.53a.07.07,0,0,0,.07.07h-.07v15.79a.29.29,0,0,0,.29.3h5.91a.66.66,0,0,0,.4-.15l2.56-2.33a.3.3,0,0,0,.1-.22v-5.37Z" transform="translate(-823.09 -431.1)"/><path class="cls-1" d="M832.31,465V448.37h18.21Z" transform="translate(-823.09 -431.1)"/><path class="cls-2" d="M857.26,441.76H860V435.6a1.77,1.77,0,0,1,1.75-1.94,1.55,1.55,0,0,1,1.63,1.74v6.36H866v-6.2a1.72,1.72,0,0,1,1.73-1.9c1.06,0,1.65.65,1.65,1.83v6.27h2.75v-7a3.34,3.34,0,0,0-6.44-1.33h-.06a2.68,2.68,0,0,0-2.81-2.09,3,3,0,0,0-2.88,2h-.06v-1.85h-2.65Zm17.87,3.78c2.58,0,3.84-.94,4.71-3.55l3.47-10.43h-2.9l-2.14,8h0l-2.15-8h-3l3.51,10.21a3.7,3.7,0,0,1-.08.48c-.19.81-.69,1.14-1.7,1.14-.1,0-.6,0-.68,0v2.14C874.18,445.53,875,445.54,875.13,445.54Z" transform="translate(-823.09 -431.1)"/><path class="cls-1" d="M857.26,445.59v22h5.55v-6.44h3.58c4.86,0,8.2-3.06,8.2-7.75s-3.18-7.79-7.87-7.79Zm5.55,4.28h2.44c2.33,0,3.73,1.24,3.73,3.52s-1.4,3.53-3.76,3.53h-2.41Zm19.81,14.23c-1.27,0-2.13-.64-2.13-1.69s.78-1.63,2.19-1.74l3-.2v1.15C885.68,463.09,884.26,464.1,882.62,464.1Zm-1.91,3.72a5.49,5.49,0,0,0,4.89-2.61h.11v2.36h5.22V456.19c0-3.33-2.92-5.6-7.33-5.6-4.6,0-7.48,2.24-7.63,5.63h4.83a2.29,2.29,0,0,1,2.53-1.78c1.41,0,2.35.73,2.35,2.06v.94l-3.86.23c-4.27.26-6.65,2-6.65,5.1S877.65,467.82,880.71,467.82Zm12.84-.25h5.36V451h-5.36Zm2.68-17.93a2.64,2.64,0,1,0-2.75-2.65A2.65,2.65,0,0,0,896.23,449.64Zm5,6.37c0,2.54,1.7,4.25,4.92,4.94l3.12.65c1.29.28,1.79.66,1.79,1.33,0,.88-.88,1.4-2.3,1.4-1.58,0-2.56-.73-2.71-2h-5.21c.23,3.4,3,5.61,7.83,5.61,4.6,0,7.71-2.21,7.71-5.65,0-2.52-1.41-3.87-4.7-4.57l-3.45-.7c-1.24-.26-1.85-.73-1.85-1.39,0-.85.85-1.43,2.17-1.43,1.48,0,2.42.75,2.47,1.93H916c0-3.42-2.83-5.57-7.33-5.57S901.26,452.69,901.26,456Zm23.88,8.09c-1.27,0-2.13-.64-2.13-1.69s.79-1.63,2.19-1.74l3-.2v1.15C928.2,463.09,926.78,464.1,925.14,464.1Zm-1.9,3.72a5.52,5.52,0,0,0,4.89-2.61h.1v2.36h5.23V456.19c0-3.33-2.93-5.6-7.33-5.6-4.61,0-7.48,2.24-7.63,5.63h4.83a2.29,2.29,0,0,1,2.53-1.78c1.4,0,2.34.73,2.34,2.06v.94l-3.86.23c-4.27.26-6.65,2-6.65,5.1S920.18,467.82,923.24,467.82Zm19.62-3.72c-1.27,0-2.13-.64-2.13-1.69s.78-1.63,2.19-1.74l3-.2v1.15C945.92,463.09,944.5,464.1,942.86,464.1ZM941,467.82a5.52,5.52,0,0,0,4.9-2.61h.1v2.36h5.23V456.19c0-3.33-2.93-5.6-7.33-5.6-4.61,0-7.48,2.24-7.64,5.63H941a2.3,2.3,0,0,1,2.53-1.78c1.41,0,2.35.73,2.35,2.06v.94l-3.86.23c-4.27.26-6.65,2-6.65,5.1S937.89,467.82,941,467.82Z" transform="translate(-823.09 -431.1)"/><circle class="cls-3" cx="122.6" cy="5.76" r="5.03"/><path class="cls-2" d="M943.14,438.89H944v-3.2h1.12V435h-3v.66h1.11Z" transform="translate(-823.09 -431.1)"/><path class="cls-2" d="M945.26,438.89H946v-2.61h0l1,2.61h.51l1-2.61h0v2.61h.72V435h-.94l-1.1,2.78h0L946.2,435h-.94Z" transform="translate(-823.09 -431.1)"/></svg>