<svg id="Layer_1" data-name="Layer 1" xmlns="http://www.w3.org/2000/svg" viewBox="0 0 157.37 18.03"><defs><style>.cls-1{fill:#26b9a5;}</style></defs><path class="cls-1" d="M852.44,424.77h27.33a2.22,2.22,0,0,1,1.44,1.29,1.84,1.84,0,0,1-.34,1.92,1.73,1.73,0,0,1-1.17.42l-11.4-.08-.19,12.27a1.94,1.94,0,0,1-1.1,1,2.08,2.08,0,0,1-2.3-.94l0-12.42-12,0a2.13,2.13,0,0,1-1.09-1.62A2.08,2.08,0,0,1,852.44,424.77Z" transform="translate(-851.57 -424.22)"/><path class="cls-1" d="M905.55,424.85l-16.94,0a9.26,9.26,0,0,0-.53,16.69l17.13.07a2,2,0,0,0-.18-3.92l-14.61.15a5.16,5.16,0,0,1-4-5.17,5.31,5.31,0,0,1,2.8-3.93l15.59.11a2.19,2.19,0,0,0,1.85-2A2.16,2.16,0,0,0,905.55,424.85Z" transform="translate(-851.57 -424.22)"/><path class="cls-1" d="M890.46,431.23l13.36,0a2.26,2.26,0,0,1,.07,4l-13.36,0a2.12,2.12,0,0,1-.07-4Z" transform="translate(-851.57 -424.22)"/><path class="cls-1" d="M911.06,425.38l0,15.7a1.9,1.9,0,0,0,3.58-.19v-6.23a16.89,16.89,0,0,1,3.63.08,18.73,18.73,0,0,1,5.39,1.66,27,27,0,0,1,7.52,5.21,1.88,1.88,0,0,0,2.15-2.72,17,17,0,0,0-1.4-1.43,17.58,17.58,0,0,0-6.72-3.78l-.19-1.09a19.81,19.81,0,0,0,8.16-5.1,1.73,1.73,0,0,0-.08-2.11,1.71,1.71,0,0,0-2.19-.34c-1.13.9-2.39,1.83-3.77,2.75a54.41,54.41,0,0,1-5.78,3.36l-6.72.08-.11-5.74a1.94,1.94,0,0,0-2.08-1.24A2,2,0,0,0,911.06,425.38Z" transform="translate(-851.57 -424.22)"/><path class="cls-1" d="M938.28,425.68v14.23a2,2,0,0,0,3.89,0q0-7,.07-14a2.23,2.23,0,0,0-2.26-1.48A2.31,2.31,0,0,0,938.28,425.68Z" transform="translate(-851.57 -424.22)"/><path class="cls-1" d="M970.82,424.78l-19,0a8.89,8.89,0,0,0-.26,16.88l19.4-.12a8.92,8.92,0,0,0-.11-16.79Zm-.15,13.32-17.63,0a5.2,5.2,0,0,1-.34-9.92l17.06.11a5.51,5.51,0,0,1,.91,9.78Z" transform="translate(-851.57 -424.22)"/><path class="cls-1" d="M983.73,440.93c0-3.76-.05-7.52-.08-11.29,0-.38,0-.92.23-1.05s.68.18.79.26c.86.64,8.54,5.49,19.44,12.34a3.51,3.51,0,0,0,2.79.12,3.58,3.58,0,0,0,2-2.38V425.87a1.52,1.52,0,1,0-3,.19c0,3.42,0,6.84-.07,10.26a1.1,1.1,0,0,1-.38.65,1.2,1.2,0,0,1-1.44-.16L985.35,425a3.2,3.2,0,0,0-3.66-.15,3.41,3.41,0,0,0-1.4,2.83V440.4a1.75,1.75,0,0,0,3.44.53Z" transform="translate(-851.57 -424.22)"/></svg>